<svg viewBox="0 0 491 442" xmlns="http://www.w3.org/2000/svg"><path d="m333.2 67.4.7-.2.7.2.7.2.7-.3.7.3.8-.4.7.4.7-.4.7.4h.7l.7-.3.6.2.1-.2v-.2l.1-.2.1-.2v-.2l.2-.2v-.3l.2-.2v-.2l.2-.2v-.2l.2-.2v-.5l.2-.1.2-.2v-.2l.1-.2.1-.2.3-.2v-.4l.3-.2.1-.1v-.3l.2-.1.2-.2.1-.2.1-.2.2-.1v-.2l.3-.1v-.3h.2l.1-.3.2-.2.1-.2.1-.1.3-.1.1-.2.1-.2.2-.1.2-.2v-.2h.3l.1-.3.2-.1.2-.1.1-.2.2-.2h.2l.1-.3.2-.1h.2l.2-.2.1-.2.2-.2h.2l.2-.2h.2l.1-.3h.2l.2-.2.2-.1h.2l.2-.2.2-.1.2-.1.1-.2h.3l.2-.1.1-.3h.3l.1-.1.2-.2h.2l.2-.1h.2l.3-.1.1-.2h.3l.1-.2h.2l.3-.1h.2l.2-.1h.2l.2-.2.2-.1.2-.1h.3l.1-.1h.5l.2-.2h.2l.2-.1h.5l.2-.1h.6l.3-.1.2-.1h.2l.2-.1h.9l.2-.1h3.8l.2.1h.9l.2.2h.7l.2.2h.7l.2.1h.2l.2.1.2.1h.4l.3.1h.2l.2.2h.4l.2.2h.2l.2.2h.5l.1.2h.3l.1.2h.3l.2.1.2.2h.2l.1.2h.5l.1.3h.2l.2.2h.3l.2.1.1.2.2.1.2.1.2.1.2.1.1.2.2.2.2.1h.2l.1.3.2.1h.3l.1.2.1.2.3.1v.2l.2.2h.2l.1.3.2.1h.3v.3l.3.1v.2l.2.2h.2l.2.2.1.2.2.2v.2l.2.1.2.2.1.2.1.2h.3v.3l.2.1.2.2v.2l.2.2v.2l.2.2.2.1.2.2v.2l.1.2.2.2v.2l.2.2v.2l.1.2.2.1.1.3.2.1v.5l.3.1v.3l.1.1v.3l.2.1v.3l.2.2v.2l.1.2.1.2v.4l.3.2v.2l.1.2v.2l.1.3.1.2v.4l.1.2.1.2v.2l.1.3v.2l.1.2v.2l.1.2v1.2l.1.2v.4l.2.2-.1.3v1.1l.1.2v.4l-.1.3v1.7l-.2.2v.7l-.1.2.1.3v.2l-.2.2v.4l-.1.2v.2l-.1.3v.4l-.1.2-.1.2-.1.2v.3l-.2.1v.5l-.2.2v.4l-.2.2v.5l-.2.1v.3l-.2.1-.1.2-.1.2v.3l-.2.1v.3l-.1.2-.2.1-.1.2v.3l-.1.2-.2.1-.1.2-.2.2v.2l-.1.2-.1.2-.2.1-.1.2-.2.2-.1.2v.2l-.2.2-.2.1-.1.2-.2.2v.2h-.3v.3l-.2.2h-.2v.4h-.3v.3h-.3v.3l-.3.1-.1.2-.1.2h-.2l-.3.2v.2l-.2.1-.2.2-.1.2h-.2l-.3.2h-.1l-.2.3h-.2l-.1.2-.2.2-.2.1-.2.1-.1.2h-.3l-.1.2-.2.2h-.2l-.2.2h-.2l-.2.2-.1.1h-.3l-.2.2-.1.1-.2.2h-.5l-.1.2-.2.1-.2.2h-.5l-.1.2h-.3l-.2.1h-.2l-.2.3h-.2l-.2.1h-.2l-.2.1-.2.1h-.5l-.2.1-.2.1h-.2l-.2.2h-.7l-.2.2-.2-.1h-.2l-.2.2h-.5l-.2.1h-.9l-.2.1h-.7l-.2.1h-.2l-.2-.1h-.5l-.2.1h-.9l-.2-.1h-.9l-.2-.1h-.9l-.2-.2h-.9l-.2-.2-.2.1h-.3l-.2-.2h-.6l-.2-.2h-.2l-.2-.1-.3-.1h-.2l-.2-.1h-.2l-.2-.2h-.4l-.2-.2-.2-.1-.2-.1h-.5l-.1-.3h-.3l-.2-.1-.2-.1h-.2l-.2-.2-.1-.2h-.5l-.2-.2-.2-.1-.1-.2h-.2l-.2-.3h-.2l-.1-.2h-.3v.2l.2.7.1.7.3.7-.5.8.5.7-.4.7.3.7.1.2h2.4l.3-.1.2.1h.9l.2.1.2-.1h.5l.2.2h.9l.2.2h.6l.2.1h.3l.2.1h.6l.2.2h.3l.2.1h.2l.2.2h.2l.2.1.2.1.2.1h.5l.1.2.2.1.2.1h.3l.2.1.2.1.1.2.2.1h.3l.2.1.1.2.2.1.2.1h.3l.1.2h.3l.1.2h.3l.1.2.2.2.1.1.3.1.2.1.1.2.2.1.2.2h.2l.1.2h.3v.3h.3v.3l.3.1.2.1v.3l.2.1h.3l.1.2.1.3h.2l.2.3h.2v.3l.2.2h.2l.1.3.2.1.2.2.1.1v.3l.2.2h.2v.3l.3.1v.3h.3v.3l.1.2.3.1v.5l.2.1.1.2.1.2.2.2.1.2v.2l.2.2.2.1v.3l.2.1v.5l.2.2.1.2v.2l.2.2v.2l.2.2v.2l.2.2v.4l.1.2.2.2v.7l.2.2v.2l.2.2v.7l.1.2v.2l.2.2v1.1l.2.2v1l.2.2v.2l-.1.3v1.3l.2.2v.2l-.1.3v.2l-.1.2.1.2v.2l-.1.3v1.1l-.1.2-.1.2v.2l-.1.2v1.2l-.1.2-.1.2-.2.2.1.2-.1.2v.5l-.3.1.1.3v.2l-.2.2-.1.2-.1.2-.1.2v.4l-.1.3-.2.1v.3l-.2.1v.3l-.2.1v.5l-.3.1v.5l-.3.1v.2l-.1.3-.2.1-.1.2v.2l-.2.2v.2l-.3.1v.3l-.2.2-.2.1v.2l-.2.2v.2l-.2.2-.2.1-.1.2-.2.1-.1.2-.2.2v.2l-.3.1v.2l-.3.2v.2h-.3l-.1.2-.2.2-.2.1v.2l-.2.2-.2.1-.1.2-.2.1-.2.2-.2.1-.1.2-.2.1-.2.2-.1.1h-.3v.3h-.3l-.2.2h-.2l-.1.3h-.2l-.3.1v.2h-.3l-.1.3-.2.1-.2.1-.2.1-.2.1h-.3l-.1.2h-.2l-.2.3h-.5v.3h-.5l-.3.1h-.2l-.2.2-.2.1h-.2l-.2.1-.2.2h-.2l-.2.1-.2.2h-.9l-.2.1h-.2l-.2.3h-.2l-.2.1h-.7l-.2.1h-.4l-.2.2h-.3l-.2-.1h-.2l-.2.2-.3-.1h-.2l-.2.2h-.9l-.2-.1h-.6v.3l.3.7-.4.7.3.7-.2.7h.2l.2.1.2.1.3.1h.7l.2.3h.3l.2-.1.2.2.3-.2.2.1.2.3.3-.2.2.2h.3l.2.1.2-.1.3.2h.9l.3.1.2.2.2-.2h.3l.2.3h.2l.2.2h1.2l.3.3.2-.1h.7l.3.1h.2l.2.1.2.3h.3l.2-.2.2.3.3-.1h.2l.2.2.3.1.3-.2.2.3.2-.2.3.1.2.2.2.1h.7l.2.1.3.1.2.1.3-.1.2.1h.2l.2.2h.5l.3.1h.2l.3-.1.2.3h1l.2.1h.2l.2.2h.3l.2.2.3-.1.2.1h.7l.2.2h.5l.2.1.3.2h.2l.3-.2.2.2.2-.2.3.2.2-.2h.3l.2-.2h.2l.2-.2.2-.1h.3l.2-.2v-.2l.3-.2v-.2l.1-.2.3-.2v-.3l.1-.1.2-.2.1-.3v-.5l.1-.2v-.5l.1-.2.2-.2-.1-.3v-.7l.2-.2v-.5l.1-.2.2-.2v-.3l.1-.2v-.2l-.2-.3.3-.2v-.2l.1-.3v-.7l.2-.2.1-.2-.1-.3v-.7l.3-.2v-.2l.1-.3v-.9l.1-.3v-.5l.2-.2v-.2l.2-.2v-.5l.1-.2.1-.2v-1l.3-.2v-1l.1-.2.2-.2-.2-.3.1-.2v-.3l.2-.2v-.7l.2-.2-.1-.3v-.2l.2-.2v-.7l.1-.3.2-.2v-1l.3-.1v-.3l-.1-.3.1-.2.1-.2.2-.2-.2-.3.1-.2.2-.2-.1-.3v-.2l.1-.3v-.4l.2-.3v-.4l.1-.3v-.5l.2-.2.1-.2v-.2l-.1-.3.3-.2-.1-.3.2-.2v-.2l.1-.2v-1.3l.2-.2v-.2l.2-.2-.2-.3.1-.2.2-.2v-.3l.1-.2-.1-.3v-.2l.2-.2-.1-.3v-.2l.3-.2v-.5l.2-.2-.1-.3v-.2l.2-.2v-.3l-.1-.2v-.3l.3-.2v-.4l.2-.3-.2-.2.2-.3-.2-.2.2-.2.2-.3v-1.2l.2-.2.1-.2v-.2l-.1-.3v-.5l.4-.2-.2-.2.1-.3.2-.2-.2-.3.3-.1-.2-.3.3-.2v-.2l-.1-.3.2-.2v-.5l.2-.2v-1.2l.2-.2v-.5l.2-.2v-.8l.2-.2v-.2l.2-.2v-.3l-.2-.3.2-.2v-.4l.2-.3v-.2l.1-.2v-1l.2-.2v-.5l.1-.2.2-.2v-.3l-.1-.3.1-.2.2-.2v-1.2l.2-.2v-.2l.2-.3v-.2l.1-.2v-.5l.1-.2v-.5l.2-.3-.1-.2v-.2l.1-.3.2-.2-.1-.3v-.2l.2-.2v-.5l.2-.2-.1-.3.2-.2-.2-.3.2-.2-.1-.2v-.3l.2-.2v-.2l.2-.2v-1l.1-.2v-.3l.1-.2v-.2l.2-.3v-.1l.2-.2-.1-.3v-.5l.1-.2v-.2l.1-.2v-.4l.3-.2-.2-.3.2-.2v-.2l.1-.2v-.9l.1-.2.2-.2v-.6l.1-.3.1-.2v-.7l.2-.2v-1l.2-.2v-.4l.2-.2v-.5l-.1-.2.2-.2.1-.3.1-.2-.1-.3.1-.2.1-.2v-.5l.2-.2-.2-.3.2-.2-.1-.3.2-.2.1-.2-.1-.3.2-.2v-.2l.1-.2v-.8l.1-.2v-.3l.2-.1v-.3l-.1-.3.3-.1-.2-.3.1-.3v-.2l.3-.2-.2-.3.3-.2-.1-.2.1-.2v-.3l.2-.2-.1-.3v-.1l.2-.2-.2-.3v-.2l.3-.2v-.3l.2-.2v-.2l-.2-.3.3-.2v-1l.1-.2v-.5l.2-.2.2-.2-.2-.3v-.5l.1-.2v-.3l.2-.2v-.2l.1-.2.1-.3.1-.2-.1-.3v-.1l.1-.2v-.3l.1-.2v-.3l.1-.2.1-.3.1-.2.1-.2v-.5l.2-.2v-.4l-.2-.2.3-.2v-.3l.1-.2-.2-.3.2-.2v-.2l.2-.2v-.8l.2-.2v-.5l.2-.2-.2-.3.3-.1v-.5l-.1-.3v-.2l.2-.2v-.3l.1-.2v-.4l.2-.2v-.2l.2-.3-.1-.2v-.5l.2-.2-.1-.3.1-.2v-.9l.3-.2v-.4l.1-.3v-.4l.3-.2-.2-.3v-.2l.3-.2v-.7l.1-.2v-.5l.2-.2v-1l.2-.2v-.3l.2-.2-.2-.2.3-.2v-.3l-.1-.2.1-.3.2-.2-.2-.3v-.2l.3-.2v-1l.2-.2.1-.2v-.7l.1-.3v-.5l.2-.2-.1-.2.1-.3v-.2l.2-.2v-.5l.2-.2v-.5l.2-.2v-.7l.2-.3-.1-.2v-.2l.1-.3.2-.2v-1l.2-.2v-1l.2-.2v-1l.1-.2.1-.2.1-.2v-.3l.1-.2.1-.2v-.5l.1-.3v-.2l.2-.2-.1-.3.2-.2-.1-.3.1-.2v-.5l.1-.2.1-.2v-.5l.2-.2v-1l.1-.2.2-.2v-.8l.2-.2v-.3l-.1-.2.3-.2v-.2l-.2-.3.1-.2.2-.3v-.7l.2-.2-.1-.3v-.2l.3-.2v-1.2l.3-.2-.2-.3.2-.2v-.8l.3-.2-.2-.2.1-.3.3-.2v-.2l-.1-.3v-.2l.3-.2-.2-.3.2-.2v-.5l.1-.2v-.3l.1-.2.1-.2-.1-.3.1-.2-.1-.3.2-.2-.1-.3-.1-.2-.1-.2v-.2l-.2-.2v-.4l-.2-.2-.1-.2v-.3h-.3l-.1-.3h-.3l-.2-.2-.1-.2-.2-.1-.3-.1h-.2l-.3-.2h-.7l-.2-.2h-.2l-.3.1-.2-.2-.3.1-.2-.2h-.4l-.3-.2-.2.1h-.3l-.2-.1-.2-.2h-.5l-.2-.1h-1l-.2-.2-.2-.1-.3.2-.2-.3h-.5l-.2-.1-.3.2-.2-.1h-.2l-.2-.3h-.5l-.2-.1h-1l-.2-.3h-.5l-.2-.1h-.2l-.3-.1-.2-.1h-.2l-.3.1h-.7l-.2-.1-.2-.2-.3.1-.2-.1-.2-.2-.3.1-.2-.1h-.5l-.2-.3h-.2l-.3.1-.2-.2h-.7l-.3-.1h-.8l-.2-.2-.3.2-.2-.2-.2-.1h-1l-.2-.3-.2.2-.2-.3h-.3l-.2.1h-.3l-.2-.2-.2-.2h-.2l-.3.1-.2-.2h-1.2l-.2-.1h-.5l-.2-.2h-.3l-.2-.1h-.5l-.2-.1h-.3l-.1-.3h-.8l-.2-.2h-.5l-.2.1-.2-.2h-.3l-.2-.2h-.2l-.3.2-.2-.3-.3.2h-.2l-.2-.3h-.8l-.2-.2-.2-.1h-.7l-.2-.2h-.3l-.3.2-.2-.2-.2-.2h-.5l-.2.1-.2-.1-.3-.2h-.5l-.2-.1-.2-.2h-.5l-.2-.1h-.5l-.3.1h-.2l-.2-.2h-.2l-.2-.2h-.6l-.2-.2h-1l-.2-.2h-.5l-.2-.2h-.5l-.2-.1h-.5l-.2-.2-.3.2h-.2l-.2-.3h-.5l-.2-.1-.2-.2-.3.2h-.2l-.2-.3h-.5l-.2-.1-.3-.1-.3.1-.1-.2h-.3l-.2-.1h-.5l-.2-.1-.3-.1-.2.1-.2-.2h-.3l-.2.1h-.3l-.2-.2-.2-.2-.3.2h-.2l-.2-.3-.3.1-.2-.2-.3.2-.2-.1-.2-.2h-.7l-.3-.2-.2.1-.2-.2h-.8l-.2-.1h-.5l-.2-.2h-.5l-.2-.2h-.5l-.2-.2-.3.2h-.7l-.3-.2-.1.3h-.3l-.2.2h-.3l-.2.1-.1.3h-.2l-.2.2-.3.1v.3l-.2.2v.2l-.3.2v.5l-.2.2.1.3v.2l-.3.2v.2l-.1.2.2.3-.2.2.1.3-.3.2.2.3-.2.2v.5l-.1.2v.2l-.1.2v.4l-.2.2v.8l-.2.2v.2l.1.3-.3.2v.1l.1.3v.5l-.2.2v.2l-.2.2.2.3-.1.2-.2.2v.3l-.1.2v.5l-.2.2v1l-.3.2.2.2-.3.2v.3l.2.2-.4.2.2.3-.1.2v.3l-.2.2.1.2v.5l-.3.2.1.3-.2.2.1.3v.7l-.1.2v.2l-.3.2.1.3-.1.2-.1.2-.1.3v.2l-.1.2v.3l-.1.2v1.2l-.2.2-.2.2.1.3v.3l-.3.1.1.3v.5l-.1.2-.1.2.1.3-.2.2v.5l-.3.2v1.2l-.2.2.1.3v.2l-.2.2v.5l-.1.2-.1.3v.2l-.2.2.2.3-.3.2v1l-.1.2-.2.2.2.3-.2.2v.3l-.2.2.2.2-.3.2v.3l.1.2v.3l-.2.2-.1.2v.8l-.1.2v.4l-.1.3v.2l-.1.2-.1.3v.2l-.2.2v1l-.1.2v.5l-.3.2v.5l-.2.2v.3l.1.2-.2.2v.8l-.2.2.2.2-.2.2.1.3-.2.2-.2.2v.5l-.1.2v1l-.2.2v.5l-.1.2-.1.2v.5l-.1.3-.1.2v1l-.3.3.1.2v.5l-.2.2.1.3-.2.2v1l-.3.2v.4l-.1.3.1.2-.3.2v.3l.2.2-.3.2.1.3-.2.2.1.3-.2.2.1.2v.3l-.1.2-.2.2v.5l.1.3-.2.2v.7l-.2.2v.5l-.1.2-.2.2.1.3v.3l-.2.2v.2l-.1.2v.5l-.1.2v.5l-.2.2v.5l-.2.2v.8l-.2.2v.2l.1.3v.2l-.1.2-.1.3v.2l-.1.2v.3l-.1.2v.3l-.2.2.1.2v.3l-.2.2v1.2l-.3.2v.5l-.1.2v.5l-.2.2.1.3-.1.2-.2.2v.5l-.1.2.5.3.7-.3zm16.5-38 .1-.2v-2l.1-.2v-.7l.2-.2v-.9l.2-.2v-.5l.1-.2v-.3l.2-.2v-.2l.1-.2v-.5l.3-.2v-.2l.1-.2v-.3l.2-.2v-.2l.1-.2.1-.2v-.2l.1-.2.1-.2.2-.2v-.2l.1-.2.1-.2.1-.2.1-.2.1-.2v-.3h.3v-.3l.1-.2.2-.2.1-.2v-.2l.2-.2.1-.1.2-.2v-.2l.2-.2.1-.2.2-.2.2-.1.1-.2.1-.2.2-.1.1-.2.2-.1v-.3l.2-.2h.2l.2-.2.1-.2.1-.2.1-.2h.3v-.3h.3l.2-.2.1-.2.2-.1.2-.1.1-.2.1-.2h.3v-.3l.3-.1.2-.1.1-.2.2-.2h.2l.2-.2.1-.1h.3l.1-.2.2-.1.2-.3h.1l.3-.1.2-.2h.2l.1-.2h.2l.2-.2.2-.1h.2l.2-.3h.2l.2-.1h.2l.2-.2h.2l.2-.2h.2l.2-.1h.3l.2-.1.2-.2.1-.1h.5l.2-.1.2-.1h.2l.2-.1.2-.1.2-.1h.3l.2-.1h.4l.2-.2h.9l.2-.1.2-.1h.5l.2-.1h1.6l.2-.2h.2l.2.1h2.7l.2.2h1.1l.2.1h.5l.2.1h.2l.2.2h.7l.2.2h.6l.3.2.1.1h.5l.2.1.2.2h.4l.2.2.2.2.3-.1h.2l.1.3h.5l.1.3h.2l.2.1.2.1.2.2h.3l.1.2h.2l.2.3h.2l.2.1.2.1.2.1.1.2.2.1.2.2h.2l.2.2.1.1.2.2.2.1.2.1.1.2.2.2h.2l.1.2.2.2.1.2h.3l.1.2.2.2h.2v.3l.2.1.2.2v.2l.2.2h.3l.1.2.1.3h.2l.2.2v.2l.2.2.1.2.2.1.1.2.1.2.1.2.2.2v.2l.3.1.1.2v.2l.3.2v.2l.1.2.2.2.1.1.1.3.1.1.1.2v.3l.1.2.2.2.1.1v.3l.2.1v.5l.2.2.2.1v.5l.1.2v.2l.2.2.1.2v.5l.2.1v.3l.1.2.1.2.1.2v.7l.1.2.1.2v.7l.2.2v.6l.1.2v1.2l.1.2v3.3l-.2.2.1.2v.3l-.2.2.2.2-.1.2v.3l-.2.2v.4l-.1.2v.2l-.1.2v.5l-.1.2v.4l-.2.2v.2l-.2.2v.5l-.1.2-.1.2-.1.2-.1.2v.2l-.2.2v.3l-.1.2v.4l-.3.2v.4l-.2.2-.1.2-.2.1v.2l-.1.3-.2.1v.2l-.2.2-.2.2-.1.2v.2l-.2.2-.1.1-.1.3-.2.1v.2l-.3.2v.2l-.2.1v.3h-.3l-.1.3-.1.2h-.2l-.1.3-.1.2-.2.1-.1.2-.2.2h-.2l-.2.2-.1.2-.2.2-.1.1-.1.2-.2.2h-.2l-.1.3h-.2l-.2.2-.2.1-.2.2-.1.1-.2.2-.2.1-.1.2-.2.1h-.2l-.2.3h-.2l-.2.2h-.2l-.1.3h-.2l-.2.1h-.2l-.2.2-.2.2h-.2l-.1.3h-.2l-.3.2h-.4l-.2.2-.2.1-.1.2h-.5l-.2.2-.2.1h-.4l-.2.2h-.2l-.2.2-.2.1h-.3l-.1.1h-.7l-.2.2-.2.1h-.2l-.2.1h-.5l-.2.2h-.7l-.2.1h-.4l-.2.1h-1.4l-.2.2h-1.1l-.2-.1h-.5l-.2.1-.2-.1h-.9l-.2-.1h-1.1l-.2-.1h-.3l-.2-.1h-.2l-.2-.1h-.7l-.2-.2h-.2l-.2-.1h-.5l-.2-.1-.2-.1h-.2l-.2-.1-.2-.2h-.4l-.2-.2h-.5l-.2-.1-.2-.2h-.2l-.2-.1-.2-.2-.1-.1h-.3l-.2-.1-.2-.2h-.2l-.1-.2h-.3l-.2-.1-.2-.1-.2-.1-.2-.1-.2-.2-.1-.1h-.2l-.2-.3h-.2l-.1-.3h-.3v-.2h-.4v-.3l-.3-.2h-.2v-.3h-.3l-.2-.2v-.2l-.3-.1-.2-.2h-.2v-.3l-.3-.1-.2-.1-.1-.2-.1-.2-.1-.2-.2-.1-.2-.1-.1-.2-.3-.1v-.2l-.2-.2-.1-.2-.2-.2v-.2l-.2-.2-.1-.1-.3-.1v-.2l-.1-.2-.3-.1v-.3l-.1-.2h-.3v-.3l-.2-.2v-.2l-.2-.2v-.2l-.1-.2-.2-.2-.1-.1v-.2l-.2-.1-.1-.2-.1-.2-.2-.2v-.3l-.2-.1-.1-.2v-.5l-.1-.2-.2-.1v-.3l-.1-.2-.2-.1v-.3l-.1-.2v-.2l-.2-.2v-.4l-.2-.1v-.5l-.1-.2-.1-.2v-.2l-.1-.2v-.6l-.1-.2v-.2l-.1-.2v-.7l-.1-.2v-.7l-.2-.2v-1.1l.1-.2v-.5l-.2-.2v-.2z" fill="#153159"/><path d="m349.8 30v.3l-.1.2v1.1l.1.2.1.2v1l.1.2v.5l.1.2.1.2v.5l.2.2-.1.2v.2l.1.2v.3l.1.2.2.1v.5l.1.2v.2l.1.2.1.3.2.1.1.2v.3l.2.1v.5l.1.2.1.2.2.1v.3l.2.2v.2l.2.2.1.1v.3l.2.1.2.2v.4l.3.2v.2l.2.2v.2l.3.1v.2l.1.3h.3v.3l.1.2h.3l.1.2.1.2.1.2.2.2.1.2.1.2.1.2h.3v.3h.3l.2.2.1.2v.2l.2.2.2.1.2.1.1.2.2.1.2.2h.2l.1.3.2.2h.2l.1.2.2.1.2.2.1.2h.3l.1.2h.3l.1.2.2.1.2.2h.2l.1.2.2.2h.2l.2.2h.2l.2.2h.3l.1.1.2.1.2.2.2.1h.3l.1.1.2.2h.2l.2.1.2.2h.7l.2.2h.2l.2.1.2.2h.2l.2.1.2.1h.2l.3.1h.2l.2.2.2-.1.2.1.2.1h.9l.2.2h.5l.2.1h1.3l.2.1h.5l.2.1h.5l.2-.1.2.1h1.1l.2-.1h.5l.2-.1h.7l.2-.1h.4l.2-.1h.7l.2-.2h.9l.2-.2.2-.1h.2l.2-.1h.3l.1-.1h.3l.2-.1.2-.1.2-.1.2-.1h.2l.2-.1h.2l.2-.2.2-.2h.4l.2-.2.2-.1h.3l.1-.1.3-.1.2-.1.1-.2.2-.1.2-.2.2-.1h.2l.2-.2h.2l.1-.3h.2l.2-.1.2-.1.2-.2h.2l.2-.2.1-.2h.2l.2-.3.1-.1.2-.2h.2l.2-.2.2-.1v-.3h.3l.2-.2v-.2l.2-.1.2-.2.1-.2.2-.2h.2l.2-.2v-.2l.3-.1v-.3l.2-.2.2-.1.1-.2.1-.2.2-.1v-.3l.2-.1.1-.2.3-.2v-.2l.2-.1v-.3l.2-.1.2-.2v-.2l.1-.2.2-.2.1-.2v-.2l.3-.1v-.4l.1-.2.2-.1v-.2l.2-.2.1-.2v-.1l.2-.2v-.2l.1-.2.2-.2v-.5l.1-.2v-.2l.2-.2v-.2l.1-.2.1-.2v-.3l.1-.2v-.2l.2-.2.1-.2v-.2l.1-.2v-.5l.1-.2v-.2l.1-.2v-.4l.2-.2v-.9l.1-.3v-1.7l.2-.2-.1-.3v-2l-.1-.2v-.7l-.1-.2v-.6l-.1-.2v-.5l-.1-.2-.1-.2v-.2l-.1-.2v-.7l-.2-.2v-.5l-.2-.1-.1-.2v-.3l-.1-.2-.1-.2v-.2l-.1-.2-.2-.2v-.4l-.2-.2v-.5l-.3-.1v-.3l-.1-.1-.2-.2v-.5l-.2-.2-.1-.1v-.3l-.2-.1-.2-.2-.1-.2v-.2l-.2-.2v-.2l-.2-.2-.2-.1-.1-.2-.2-.2v-.2l-.2-.2-.1-.2h-.2v-.4l-.2-.2-.1-.2-.2-.1-.2-.1v-.3l-.2-.1-.3-.1-.1-.2v-.2l-.3-.2h-.1l-.1-.3-.2-.1-.2-.2-.1-.2h-.3v-.2l-.3-.2v-.1h-.3l-.2-.2-.1-.2h-.2l-.2-.2-.2-.2-.1-.1-.2-.1-.2-.1-.2-.2h-.2l-.1-.3h-.2l-.2-.2h-.2l-.2-.1-.2-.3h-.2l-.1-.2h-.3l-.2-.2h-.2l-.2-.1-.2-.1-.1-.2h-.5l-.1-.3-.2-.1h-.3l-.2-.1-.2-.1h-.2l-.2-.1-.2-.2h-.2l-.2-.1h-.3l-.1-.1-.3-.1h-.4l-.2-.1-.2-.2h-.7l-.2-.1h-.2l-.2-.1h-.5l-.2-.2h-1.1l-.2-.2h-2.9l-.2-.1-.2.2h-1.6l-.2.1h-.7l-.2.1h-.7l-.2.1-.2.2h-.4l-.2.1h-.5l-.2.2h-.4l-.2.2h-.7l-.1.2-.2.2h-.5l-.2.1-.2.1-.2.2h-.2l-.2.1h-.2l-.2.2h-.2l-.2.3h-.2l-.2.1-.2.1h-.2l-.1.3h-.2l-.2.2h-.3l-.1.1-.2.3h-.2l-.1.2h-.3l-.1.2-.2.1-.2.1-.2.2-.1.2h-.2l-.2.2-.1.2h-.3v.3l-.2.2h-.2l-.2.2-.1.2-.2.1-.2.1-.1.2-.3.1v.2l-.2.2-.1.2-.2.1-.2.1-.1.2-.1.3-.2.1-.1.2-.2.1v.2l-.2.2-.2.1-.2.2-.1.2-.1.2v.2l-.3.2-.1.1-.1.2v.2l-.2.2-.2.2v.2l-.1.2-.2.1v.3l-.2.2v.2l-.2.2v.2l-.1.2-.1.2-.2.2v.2l-.1.2v.2l-.2.2-.2.2v.4l-.1.2-.2.2v.2l-.1.2v.5l-.1.2v.2l-.3.2v.4l-.1.2v.5l-.1.2v.2l-.2.2v1.4l-.1.2v.2l-.2.2v.2l.1.3v1.1l-.1.2v.7z" fill="#e97262"/><path d="m350 93.1.2.1.2.1.2.2.2.1.1.2.2.1.2.1h.3l.2.1.1.2.2.1h.2l.2.2h.2l.3.1.1.2h.5l.2.2h.2l.2.2h.2l.2.1.2.1h.2l.2.1h.2l.3.2h.4l.2.2.2.1h.4l.2.1.3.1h.4l.2.1h.7l.2.1h.2l.2.1h.7l.2.1h.9l.2.1h.7l.2-.1h.7l.2.1.2-.1h1.4l.2-.2.2.1.2-.1h.5l.2-.2h.8l.3-.1h.2l.2-.2h.4l.2-.1h.5l.2-.2h.4l.2-.2h.2l.2-.2h.2l.2-.2h.3l.1-.2h.5l.2-.2h.2l.1-.3h.5l.2-.2.1-.1.2-.2h.3l.1-.1.2-.2h.2l.2-.2h.2l.2-.2.1-.2h.3l.1-.2h.2l.2-.2.2-.2.1-.1.2-.1.1-.2.2-.1.3-.1.2-.1.1-.2.2-.2.1-.1.1-.2.3-.1.2-.1.1-.2.1-.2h.2v-.4h.3v-.3h.3v-.3h.3l.2-.3v-.1h.3v-.3l.2-.2v-.2l.3-.1.1-.2v-.2l.2-.2.2-.2v-.2l.3-.1v-.2l.2-.2v-.2l.2-.2v-.3l.3-.1.1-.2v-.3l.1-.2.2-.1v-.2l.1-.3.2-.1v-.5l.2-.2.2-.1v-.3l.1-.1.2-.2-.1-.3.2-.2v-.4l.1-.2.2-.2v-.4l.1-.3v-.1l.2-.2v-.7l.2-.3v-.4l.2-.2v-.4l.1-.2-.1-.3v-.2l.2-.2v-1.3l.2-.3-.1-.2v-1.1l.1-.2v-.2l-.1-.3v-1.5l-.1-.2v-.9l-.2-.2.1-.3-.1-.2v-.6l-.1-.3-.1-.2v-.2l-.2-.2v-.5l-.2-.3v-.4l-.1-.2-.2-.2v-.2l-.1-.2v-.2l-.2-.2v-.2l-.2-.2v-.3l-.1-.1v-.3l-.2-.1v-.3l-.2-.1-.1-.2v-.3l-.2-.1v-.3l-.3-.1v-.5l-.2-.2-.1-.2-.2-.2v-.2l-.1-.2-.2-.2-.2-.1-.1-.2-.1-.2-.1-.2-.1-.2-.2-.2h-.2v-.3l-.3-.1v-.3l-.2-.2-.2-.2-.1-.1-.1-.2-.2-.2-.1-.2-.2-.1-.2-.1-.1-.2-.1-.2-.2-.1-.1-.2h-.3l-.2-.2v-.2l-.3-.1-.1-.2-.1-.2h-.3l-.1-.3-.1-.1h-.3l-.2-.2-.1-.2h-.2l-.2-.2-.2-.2-.1-.2h-.2l-.2-.2h-.2l-.2-.2-.1-.2h-.2l-.3-.1-.2-.1-.2-.1-.1-.2h-.2l-.3-.1-.1-.2h-.2l-.2-.2-.2-.1h-.3l-.1-.2h-.3l-.1-.2h-.5l-.2-.2h-.2l-.2-.1h-.2l-.2-.1-.2-.2h-.5l-.2-.1h-.2l-.2-.1-.2-.1h-.2l-.3-.1h-.6l-.2-.2h-.7l-.2-.2h-1.8l-.2-.1h-3.3l-.2.1h-.9l-.2.2h-.9l-.2.2h-.7l-.2.1-.2.2h-.5l-.1.1h-.5l-.2.2-.2.1h-.2l-.2.2h-.7l-.1.3h-.3l-.1.2h-.5l-.2.2h-.2l-.2.2-.1.2h-.3l-.1.2h-.5l-.1.3h-.2l-.2.2-.2.1h-.2l-.2.2-.2.2h-.2l-.1.2-.2.1-.2.1-.2.1-.2.2-.1.2-.2.1h-.2l-.2.2-.1.2h-.2l-.2.3v.2h-.3l-.2.2v.2l-.3.1-.1.2-.2.2-.2.1v.2l-.2.2h-.3l-.1.2-.1.2-.2.2v.2l-.3.1v.3h-.2l-.1.3-.2.1v.2l-.2.2-.2.2-.2.1v.3l-.1.1-.2.2v.2l-.1.2-.3.2v.2l-.2.2v.2l-.2.2-.1.1v.3l-.1.2-.1.2-.1.2-.2.2v.2l-.1.2-.1.2-.1.2v.2l-.2.2v.2l-.1.2-.1.2h.1l.7-.3.7.1.8.2.7-.3h.7l.7.2h.7l.7.2.7.3.2.7.5.6-.2.7.1.7v.7l.2.7v1.4l.4.7-.2.8-.2.7v.7l.2.7v.7l.4.7-.2.7-.1.7.1.7.3.7-.2.8.3.7v.7l.1.7v1.4l-.2.7v.7l.2.7.1.7v.8l-.2.7.3.7v.7l-.3.7v1.2h.4z" fill="#ffd457"/><path d="m353 142h1.5l.2-.1h.5l.2-.1h.9l.2-.1h.2l.2-.2.3.1h.4l.2-.1.2-.2h.2l.2-.1h.2l.3-.1h.4l.2-.2.2-.1h.2l.2-.2h.4l.2-.2.2-.1h.2l.3-.2h.4l.1-.3h.5l.2-.2h.2l.1-.3h.3l.2-.1h.2l.2-.2.2-.1v-.2h.3l.1-.3h.3l.2-.1.1-.2.2-.1.2-.1.2-.1.1-.3h.3l.1-.1.2-.2.2-.1.1-.2h.2l.2-.3h.2v-.3l.3-.1.1-.2.1-.2.2-.1.2-.2.1-.1.3-.1v-.2l.2-.2.1-.2.2-.1v-.2l.3-.2.1-.2.2-.1.1-.2.2-.1.1-.2.1-.2.1-.2.1-.2.2-.1.1-.3.1-.2h.2v-.3l.3-.2v-.2l.1-.2.2-.1v-.3l.1-.2.3-.1v-.5l.2-.1.1-.2v-.3l.2-.1v-.3l.1-.2v-.2l.3-.1v-.5l.1-.2v-.2l.2-.2.1-.2.1-.2.1-.2v-.3l.1-.1v-.5l.2-.2v-.4l.2-.2v-.9l.2-.2-.1-.3v-.4l.2-.2v-1.3l.2-.3v-.2l-.1-.2.1-.2v-2l-.1-.2v-.9l-.1-.3v-.4l-.1-.2-.1-.2v-.9l-.2-.2v-.4l-.1-.3v-.4l-.2-.2v-.2l-.1-.2-.1-.2v-.5l-.2-.2v-.4l-.1-.2-.1-.2-.1-.2-.1-.2v-.2l-.2-.2v-.2l-.2-.2-.1-.2v-.2l-.1-.3-.2-.1v-.3l-.2-.1-.2-.2v-.2l-.1-.2-.2-.2-.1-.2v-.2l-.2-.1-.1-.3v-.2h-.3v-.3l-.1-.2-.3-.1v-.3l-.2-.1-.1-.2-.2-.1-.1-.2-.1-.3-.1-.1-.2-.2-.2-.1-.1-.2-.2-.1-.2-.2v-.2l-.2-.1-.2-.2-.2-.1v-.3l-.2-.1h-.3l-.1-.2v-.3h-.3l-.2-.2-.1-.2-.2-.1-.1-.2h-.3l-.1-.2-.2-.1-.2-.2-.2-.1-.1-.2h-.2l-.3-.2-.1-.1-.2-.2-.1-.1-.3-.1-.1-.2h-.3l-.1-.2h-.5l-.2-.2-.1-.2h-.5l-.2-.2-.1-.2h-.2l-.2-.2h-.5l-.2-.2-.1-.1h-.5l-.2-.2-.2-.1h-.4l-.2-.2h-.2l-.2-.2h-.3l-.2-.1h-.6l-.2-.1h-.3l-.2-.2h-.6l-.2-.2h-.9l-.2-.1h-.3l-.2-.1-.2.1h-.7l-.2-.2-.2.1-.2-.1h-1.8l-.2.1h-.7l.1.5-.1.7.2.7v.7l.1.7v1.5l-.1.7.2.7-.5.7.4.7.2.7v1.4l-.1.7.3.7-.3.8v.7l.3.7.1.7v.7l-.2.7.3.7-.4.7.4.7v.7l-.2.8.4.6-.3.8v.7l.2.7-.2.7v1.4l.3.7v.7l.2.7.2.7-.5.8.5.7-.4.7v.7l.5.7v.7l-.4.7.6.7v1.5l-.4.7.3.7v.7l-.1.7.5.7v1.4l-.2.7.1.7-.1.8v.7l.2.7v1.2l.2-.1h.3z" fill="#01866a"/><path d="m59.2 264.6-.2-.2-.2-.1-.2-.1-.2-.1-.3-.2-.5-.2-.6-.4-.3-.2-.2-.1-.6-.3-.4-.1-.3-.3-.4-.2-.2-.1h-.2l-.3-.3-.4-.2-.3-.1-.5-.4-.2-.1-.2-.1h-.3l-.3-.3-.6-.3-.3-.2-.3-.2-.4-.1-.3-.3h-.2l-.2-.2-.2-.1-.3-.2-.2-.1-.2-.1-.3-.2-.3-.2-.5-.3-.6-.2-.2-.2h-.2l-.7-.5h-.3l-.3-.3h-.2l-.2-.2-.3-.2-.2-.1-.3-.2h-.1l-.3-.2-.4-.2-.3-.1-.3-.2-.2-.1-.3-.2-.2-.1-.2-.1-.2-.1-.3-.2-.4-.2-.2-.1-.6-.4-.8-.5a1 1 0 1 1 .9-1.8l.5.3.6.3.2.2h.3l.5.4.3.1.2.2.3.1.2.2h.3l.2.3h.4l.5.4.2.1.3.2.3.2h.2l.2.2.2.1.3.2.2.1h.2l.7.5.3.1.2.2.5.2.8.4.2.2.2.1.2.1.3.1.2.2h.2l.2.2.4.2.1.1h.2l.5.4.2.1.4.2.4.2.2.1h.2l.3.3.2.1.5.3.2.1.3.2.4.2h.3l.2.3.2.1.4.2.1.1h.2l1 .6.3.2.7.4.5.2.2.1.2.2.3.2.3.1.2.1 3.3-5.6-.2-.2h-.2l-.2-.2h-.1l-.2-.3h-.5l-.1-.2-.2-.2-.2-.2h-.5l-.1-.2-.3-.1-.2-.2h-.2l-.1-.2h-.4l-.2-.1-.2-.2-.2-.1h-.2l-.2-.2-.2-.2h-.2l-.2-.3h-.2l-.2-.2-.2-.1-.2-.1-.2-.2h-.2l-.2-.1h-.3l-.2-.2h-.2l-.1-.3-.2-.1-.2-.2h-.2l-.3-.2h-.2l-.2-.2h-.5v-.3h-.4l-.2-.1-.2-.1-.2-.1-.2-.2h-.2l-.2-.2-.1-.2-.2-.1h-.3l-.1-.3h-.5l-.2-.2h-.2l-.2-.2-.1-.3h-.3l-.2-.1-.2-.2h-.5l-.1-.3h-.2l-.2-.2h-.3l-.1-.3h-.5l-.2-.2-.1-.2-.3-.1-.2-.1-.2-.1-.2-.1-.2-.1-.2-.2h-.3l-.1-.1-.2-.2h-.3l-.1-.3h-.5l-.2-.2-.1-.2h-.3l-.1-.2-.3-.1h-.2l-.2-.1-.2-.2h-.2l-.2-.2h-.2l-.2-.2-.3-.1-.2-.2h-.2l-.2-.2-.3.1-.2-.2h-.4l-.2-.2h-.3l-.2-.2h-.2l-.2-.1h-.2l-.2-.2-.3.1-.2-.1h-.2l-.2-.3-.3.1h-.2l-.2-.2-.2-.2h-.5l-.1-.2h-.3l-.2-.1-.1-.3h-.3l-.1-.3-.2-.1h-.3l-.2-.2v-.3h-.4l-.1-.3h-.2l-.2-.2-.2-.2h-.2l-.1-.3-.2-.1h-.3v-.3l-.2-.2-.2-.1-.2-.2-.1-.1-.2-.1h-.3v-.3h-.3l-.2-.2-.2-.2-.1-.2-.2-.2h-.2l-.1-.3h-.3l-.2-.2-.2-.1h-.2l-.2-.1-.2-.2-.2-.1h-.3l-.2-.1-.2-.2-.2.1h-.2l-.3-.2h-.4l-.2-.2-.3-.1h-.7l-.2-.3-.3.2-.1-.2h-.5l-.2-.3h-.7l-.2-.2-.3.1-.2-.3h-.5l-.2-.2-.3.2-.1-.2h-.7l-.2-.2h-.5l-.2-.2h-.5l-.2-.1h-.2l-.3-.1h-.4l-.3-.2-.2-.1-.2-.1-.2-.2h-.5l-.1-.3h-.3l-.1-.2h-.3l-.2-.2h-.1l-.1-.3h-.3l-.2-.2h-.4l-.2-.1-.2-.2h-.2l-.1-.2-.2-.2h-.3l-.2-.1h-.2l-.2-.2-.2-.1h-.3l-.2-.2-.2.1-.2.1v-.2h-.3l-.2.2-.3-.2-.2.3h-.7l-.3-.2-.2.1-.2.2h-.7l-.2.2h-.8l-.2.3h-.5l-.2.2-.1.2-.1.2-.2.2-.2.2v1l-.1.2v.3l.1.2.2.2v.2l.1.2v.5l.2.2.1.2.1.2.1.2.2.2v.2l.2.2v.5l.3.2v.2l.3.2-.1.1.1.2.2.2v.2l.2.2.1.2.1.3h.2v.4h.4l.2.1.2.1.2.1.2.2.1.2h.2l.3.2h.2l.1.2h.3l.2.2.1.2.2.2h.5l.1.2h.3l.1.3h.5l.1.3.2.1.3.1h.2l.3.1.2.2v.2l.3.1.2.2.1.2h.2l.2.2.2.2v.3h.4l.1.2.2.2.2.1v.2l.3.2v.2l.3.1.2.1.1.3.2.2h.2l.1.3.2.1.2.2.2.1.1.2.2.2.2.1v.3h.4v.3l.2.2.1.1.2.2.2.1.2.1.1.3h.3l.1.3h.2l.2.3v.2h.3l.2.2.1.2.2.1.2.1h.3l.2.2h.2l.2.1h.3l.2.2h.2l.2.3h.2l.2.1.2.1h.3l.2.2h.5l.2.1.2.1h.3l.1.2h.3l.2.1.2.1.2.2h.7l.2.3h.3l.1.2h.5l.2.1.2.1.2.2.2.2h.2l.2.2h.2l.1.3.2.2.2.1.2.2.2.1.2.2h.2l.1.3.2.2.2.1v.3h.3v.3l.3.1.3.1.1.2v.3l.3.1.1.2.2.2.2.1.2.2.3.1h.3l.1.3.2.1h.3l.1.2h.3l.2.1.2.1.1.3h.3l.2.2.2.1h.2l.1.3h.4v.2h.3l.2.1.2.2h.3l.1.3h.5l.1.3h.3l.1.2h.3l.1.2.2.2h.3l.2.1.1.2.2.1.3.1.2.1.2.1h.2l.2.3h.2l.2.1.2.2h.2l.3.1.1.2h.2l.2.2.2.1.2.2h.2l.2.3h.3v.2h.6l.2.2.1.2h.3l.2.2.2.1.2.1h.2l.2.3.1.2h.5l.2.2.2.2h.2l.1.2.3.1h.2l.2.1.2.2h.3v.3h.3l.2.2.2.1h.2l.2.2h.3l.1.3h.2l.2.2h.3l.1.2h.3l.1.2h.3l.2.1.2.2h.2l.2.2h.2l.2.2.1.3h.3l.1.2h.3l3.2-5.6-.2-.1zm-36.1-21.4a1 1 0 0 1 -1.4.4l-.2-.1-.3-.2-.2-.1-.5-.3-.9-.5-.4-.2v-.1l-.3-.1-.3-.2-.6-.3-.3-.2-.2-.1-.2-.1-.6-.4-.4-.2-.3-.2h-.1l-.3-.2-.3-.2h-.1l-.3-.2-.3-.2-.2-.1-.2-.1-.3-.2h-.1l-.3-.1-.3-.2-.5-.4h-.1l-.3-.2-.2-.2h-.3l-.3-.3-.3-.1-.5-.3-.3-.2-.2-.2-.4-.2-.4-.1v-.1l-.4-.1-.2-.2-.5-.2a1 1 0 1 1 1-1.9l.6.4h.1l.3.1.2.2.3.1.5.3.2.2h.2l.4.4h.3l.5.3.2.2.2.1.3.1.3.3.5.3h.3l.3.3h.2l.3.3h.2l.3.2.1.1.3.2.2.1h.2l.3.3.3.1.8.5.3.1.2.2.2.1.4.2.2.1.3.2.1.1.2.1.3.2.5.2.8.6.4.1.1.1.3.2.2.1c.5.3.7 1 .4 1.4z" fill="#f7c32e"/><path d="m22.7 241.8-.2-.1-.3-.2h-.1l-.4-.2-.8-.6-.5-.2-.3-.2-.2-.1h-.1l-.3-.3-.2-.1-.4-.2h-.2l-.2-.3h-.3l-.8-.6-.3-.1-.3-.2h-.2l-.2-.2-.3-.2h-.1l-.3-.2-.2-.1-.3-.2-.2-.1-.3-.2-.3-.1-.5-.3-.3-.3h-.3l-.2-.2-.2-.2-.5-.2-.3-.1-.4-.3-.2-.1-.2-.2-.5-.3-.3-.1-.2-.2h-.3v-.1l-.7-.4a1 1 0 0 0 -1 1.9l.5.2.2.2h.3l.1.2.4.1.4.2.2.2.3.2.5.3.3.1.3.2.3.1.2.2.3.1v.1l.6.4.3.2h.3l.1.1.3.2h.2l.2.2.3.2.3.2h.1l.3.2.3.1v.1l.4.2.4.2.6.4h.2l.2.2.3.2.6.3.3.2.2.1h.1l.4.3.9.5.5.3.2.1.3.2h.2a1 1 0 0 0 1.4-.3 1 1 0 0 0 -.4-1.4zm61.5 68.5-.3.1h-.6l-.2.1-.3.1h-.3l-.2.2-.2.2h-.4l-.1.1h-.2v.2l-.3.1-.2.2h-.2v.1h-.1c1.4.7 2.7 1 4 1v-1.2l-.1-.3-.2-.6v-.3h.2-.4zm-30.6-13.8.2-.2.2-.1.2-.1.1-.2.2-.2h.3l.2-.1.1-.2.2-.2h.3l.2-.1.1-.2.2-.1.2-.2h.3l.2-.2.2-.1h.2l.2-.2.2-.1.2-.2h.2l.2-.1.2-.2h.2l.3-.2h.2l.2-.2h.2l.2-.2h.2l.2-.2.2-.1.2-.2h.4l.3-.2.2-.1h.2l.2-.1.2-.2h.3l.1-.2h.3l.2-.2h.5l.2-.1.2-.1h.2l.2-.1h.3l.2-.1.2-.1.2-.1h.3l.2-.2h.7l.2-.1.2-.1h.3l.2-.1h.7l.2-.1h.2l.3-.1.2-.1h1.2l.2-.1h3.3l.2.2h.7l.2.1h.7l.2.1h.3l.2.1.2.1h.5l.2.1.2.2h.7l.2.2.2.1.2.1h.5l.2.2h.6l.2.2h.9v.2h.8v.1h.2l.1.1h.5l.2.2h.4l.1.1.3.1h.3l.2.2h.3l.2.1.3.2h.3v-.4l.1-.6.1-.2v-1l.3-.5v-.1l.1-.9.2-.4v-.2l.2-.5v-.2l.2-.8.2-.1v-.5l.3-.3a6.3 6.3 0 0 1 5.3-11.2c.4 0 .8.3 1.2.5l.8.5a6.3 6.3 0 0 1 -3.8 11.3c-.5 0-1 0-1.4-.2v.3l-.2.1v.6l-.3.3-.1.3-.1.3v.4l-.1.1.1.5-.4.4v.2l-.1.5.1.4-.3.4v.4l-.2.3.1.3-.1.5-.1.4.2.2h.3l.2.1h.1l.2.1.1.2h.1l.3.1v.1h.2l.2.2h.3l.2.2h.3v.1l.3.1.2.1.1.1.1.1.3.1v.1h.2v.1h.3v.2h.5l.2.2.2.3h.2l.2.3h.3l.3.1.2.2h.1v.2h.1l.2.1h.3l.2.2.1.1h.2l.2.3h.2l.2.2v.1h.3v.2h.2v.2h.2l.2.2h.2l.2.2.2.2.2.2.2.1.2.2h.2l.2.2.2.2h.1l.1.1.3.1v.1c2.1-3.2 4.5-7 7.2-11.8 11.2-19.4 13.6-27.6 5-33l-24.6-14c-10.3-3.9-14.4 1.7-22.3 15.5l-3.3 5.7-.2-.2-.3-.1-.3-.2-.2-.2h-.2l-.5-.3-.7-.4-.3-.2-1-.6h-.2v-.1l-.5-.2h-.2l-.2-.3h-.3l-.4-.3-.3-.2h-.2l-.5-.4-.2-.1-.3-.2h-.2l-.2-.2-.4-.2-.4-.2h-.2l-.5-.5h-.2l-.1-.1-.4-.2-.2-.1-.2-.1-.2-.2h-.3l-.2-.2-.2-.1-.2-.2-.8-.4-.5-.2-.2-.2-.3-.1-.7-.4-.2-.1-.2-.1-.3-.2h-.2l-.2-.2-.2-.1-.3-.2-.3-.2-.2-.1-.5-.3-.4-.1-.2-.2-.3-.1-.2-.2-.3-.1-.2-.2h-.3l-.5-.4-.2-.1-.3-.2-.6-.3-.5-.3a1 1 0 1 0 -1 1.8l1 .5.5.4h.2l.4.3.3.2.2.1.2.1.2.2h.3l.2.2.3.2h.3l.4.3.3.1.1.1.3.2.2.1.3.2.2.1.2.1.3.2.3.1.7.5h.2l.2.2.6.2.5.3.3.2.3.2h.2l.2.2.3.2.3.1.1.1.2.1.3.3h.4l.3.3.3.2.5.3h.2l.2.2.4.1.3.2.5.4h.3v.1l.4.2.3.2h.2l.2.2.3.1.4.4h.4l.6.4.2.1.3.2.7.4.4.2.3.2h.2l.2.2.2.1.2.2h.2l-3.2 5.8c-8 14.5-9.7 21.6-2.8 26.2l.2-.1zm33.1-2.9h-.1zm1.8 17.8-.1-.1-.3-.2h-.4l-.2-.2h-.3l-.2-.2h-.2l-.3-.2v.2l.2.4v.7l.1.4v.2l1.9-.8z" fill="#ffd457"/><path d="m58.5 299h.1l.1-.1.1-.2.2-.1.2-.2.1-.3h.2v-.2h.1l.1-.2.2-.2.2-.1.2-.2.2-.2.2-.2.2-.2.2-.2h.2v-.1l.2-.2.3-.1.1-.3.2-.2h.3l.2-.3h.2l.2-.2.3-.2.1-.2.3-.2h.2l.3-.2.2-.1.2-.2.2-.2h.2l.3-.2h.3l.2-.2h.1l.1-.2h.3l.2-.2.2-.1.3-.1h.2l.1-.1.2-.1h.3l.3-.2h.2l.3-.2h.3l.2-.1h.2l.3-.2h.6l.2-.2.3-.1h.5l.3-.2h.8l.2-.1h.7l.3-.1h4.4l.2.2h.9l.2.1-.2-.2h-.7l-.2-.2-.2-.1h-.2l-.2-.2h-.5l-.2-.1h-.5l-.2-.2h-.5l-.2-.1-.2-.1h-.7l-.3-.1h-.4l-.2-.1h-.7l-.3-.1h-3.6l-.2.1h-.2l-.3.1h-.2l-.2.1h-.7l-.2.2h-.5l-.2.2h-.7l-.2.1h-.4l-.2.2h-.2l-.2.1h-.3l-.2.1h-.2l-.2.2-.2.1h-.5l-.2.2h-.3l-.2.2h-.1l-.2.2h-.4l-.2.2-.3.1h-.2l-.2.1-.2.2-.2.1-.2.1-.2.1-.2.1-.2.1-.2.1-.2.1-.3.1-.2.1-.2.2h-.2l-.2.1-.2.2-.2.1-.2.1-.2.1-.2.1-.2.2h-.3l-.2.2h-.1l-.1.3h-.2l-.3.1-.2.2-.1.2-.2.1h-.3l-.2.2-.1.2-.2.1h-.2l-.2.3h-.2c.4.4.9.6 1.4.9l3.5 2 .1-.3h.1z"/><path d="m1.4 441.8-.2-.2zm-.6-.5v.2h.3s-.2 0-.3-.2zm55.7-67.3-.3-.2h-.2l-.2-.3-.3-.1-.1-.2-.3-.1-.2-.2-.3-.1-.1-.2h-.3l-.2-.3h-.3l-.2-.2-.3-.2-.2-.1-.2-.2-.2-.2-.2-.1-.2-.2-.3-.1-.2-.2-.2-.2h-.3l-.2-.2-.2-.2-.2-.1-.2-.2h-.4l-.2-.3h-.3l-.2-.3h-.3l-.2-.2-.2-.2-.2-.1-.3-.2-.1-.3h-.3l-.1-.1-.2.4-.4.5-.1.1-.1.2-.2.3-.2.2v.2l-.3.2-.3.6-.1.1-.1.2-.8 1.2-.4.5-.2.3-.2.3-.2.2-.1.3-.2.2v.1l-.2.3-.2.3-.2.2-.1.2-.4.7-.3.4-.2.3-.2.2v.2l-.2.2-.2.2v.2l-1 1.3v.1l-.1.2-.2.3-.2.3-.3.3-.1.3-.2.2-.2.3-.6.8-.3.5-.4.6-.1.3-.2.3-.4.5-.2.3-.2.3-.1.2-.2.2-.2.3-.1.2-.3.4-.2.3-.2.4-.5.7-.2.3-.7 1-.1.3-.3.3-.1.2-.1.1-.2.3-.1.2-.2.2-.1.3a1 1 0 1 1 -1.7-1.2l.1-.2.2-.3.1-.2.2-.2.2-.3.1-.2.1-.1.1-.3.2-.3.2-.2.1-.2.4-.6h.1l.2-.3v-.2l.3-.3.2-.4.2-.2.5-.8.1-.1.2-.3.1-.2.2-.2.4-.7.2-.3.1-.1.1-.2.7-1 .1-.2.6-.9.2-.3.1-.1.2-.3.3-.4.2-.3v-.1l.2-.3.3-.3.2-.4.2-.2.2-.4.1-.3.2-.2.2-.3.2-.3.1-.1.1-.2.4-.4.4-.8.1-.2.2-.2.2-.2v-.2l.3-.3.1-.2.2-.3.1-.2.2-.2.3-.4.3-.6.4-.6.3-.4.1-.3.3-.2.3-.5v-.1l.2-.3.2-.2.1-.2.2-.3.2-.2.2-.4.2-.2v-.2h-.2l-.1-.3-.3-.1-.2-.2-.2-.2-.2-.1h-.3l-.2-.3-.2-.2-.2-.2h-.3l-.2-.3h-.2l-.1-.3h-.3l-.2-.3-.2-.1-.2-.2-.3-.1-.2-.2h-.1l-.2.2-.1.3-.3.1.1.4-.2.3h-.3v.3l-.3.2v.3l-.1.3-.2.2-.2.2v.3h-.4l-.1.3-.1.3h-.3v.5l-.2.1v.3l-.1.2-.3.2-.2.2-.1.2-.2.2-.1.3-.1.2-.3.2v.3l-.3.2v.2l-.2.3-.2.2v.2l-.3.2v.3h-.4l-.2.3v.3l-.1.3-.1.2-.2.2-.2.2-.2.2v.3l-.2.2-.3.1-.2.2v.7h-.5v.9l-.4.1-.3.2v.3l-.1.2-.2.2-.2.2v.3l-.1.3h-.4v.3l-.2.3-.1.2-.3.1-.1.3v.3l-.4.1v.3l-.2.2-.2.2v.6h-.4l-.2.3v.3l-.2.2v.4h-.3l-.3.2v.3l-.2.2-.2.2-.1.2v.3l-.3.2v.3l-.3.2-.3.1v.4l-.1.2-.3.1-.1.3v.3l-.1.2-.2.2-.2.2v.3l-.3.2-.2.2-.1.2-.2.2-.2.2v.3l-.2.3h-.3v.4l-.2.2-.2.2v.3l-.1.3-.3.1-.1.2-.1.3v.3l-.2.2v.3l-.2.2-.2.2v.3l-.1.2.1.3-.2.3-.1.2-.1.3v.3l-.2.2-.1.2.1.4-.2.2-.2.2.2.3-.2.3-.2.2-.2.2v1.2l-.3.2v.5l-.3.2.1.3-.1.3-.2.2v.6l-.2.2-.1.2v.3l-.2.3v.3l-.1.2-.2.2v.3l-.3.2.1.3-.2.2v.3l-.3.2-.2.1v.4l-.3.1v.3l-.3.1v.3l-.2.3-.2.1-.2.2-.2.2v.3l-.3.1-.2.2-.2.2-.2.2-.2.2-.2.1-.1.3h-.3l-.3.2v.3l-.3.2-.1.2-.2.2h-.3l-.2.3-.2.2h-.3v.4l-.3.1h-.3l-.1.4-.2.2-.3.1-.1.2-.2.2-.3.2-.1.2-.2.2h-.4v.3l-.3.2-.2.2-.1.3-.2.1-.3.2-.2.2v.3l-.1.2-.2.3v.6l-.2.2-.1.2-.1.2-.1.3v.3l.1.3-.1.2v.3l-.1.3v.5l-.1.2-.2.3-.1.3.2.3-.3.2v1.1l-.2.2.1.3-.1.3v.5l-.1.3v.5l-.2.3-.1.2v.8l-.2.3.1.3-.3.1.1.4-.1.2v.6l-.3.1-.1.3v.3l-.2.1-.2.3-.2.1-.2.3-.2.1-.3.1-.1.3h-.3l-.2.2-.1.2-.3.2-.2.1-.2.1-.2.3-.3.2-.1.3h-.3l-.2.2-.1.2h-.3l-.2.3h-.3l-.2.3-.1.3-.2.1v.4l-.3.2v.2l-.2.3-.2.2.1.3v.3l-.3.2v1.1l-.1.3-.1.2v.3l-.2.3.3.3-.3.2v.8l-.2.3.1.3-.3.2.1.3v.5l-.2.3v.8l-.2.2v.9l-.1.2-.1.3v.5l-.3.3v1.3l-.1.4.2.2.2.2.1.3h.1v-.2l.2-.4h.1l.1-.3.5-.7.2-.3.3-.3.1-.3.3-.3v-.2l.2-.1.1-.3.3-.3.2-.3.2-.3.2-.2v-.2l.4-.4.2-.3.3-.5.3-.3.1-.2.2-.3.4-.6.1-.1.3-.4.3-.5.2-.2.1-.2.2-.3.3-.4.2-.2.2-.3.2-.2.1-.4.3-.3.1-.1.2-.3.1-.2.2-.2.1-.2.1-.2.3-.3.3-.5.2-.2.2-.3.2-.3.3-.5.1-.1.2-.3.2-.3.3-.3v-.2l.3-.4.2-.1v-.3l.4-.3.1-.3.3-.3.1-.2.2-.2.2-.3.2-.3.2-.4.2-.1.1-.3.2-.2.1-.2.1-.1.2-.4.2-.1v-.2l.5-.6.2-.2v-.1l.4-.5.3-.4.3-.5.1-.1.2-.4.2-.2.3-.4.2-.2v-.2l.3-.2v-.3l.5-.4.1-.3.2-.1.4-.6.4-.8.3-.3.2-.2.1-.2.2-.3.2-.4.1-.1.2-.3.2-.2v-.1l.3-.3.1-.2.3-.5.2-.2.2-.3.4-.5.2-.3.2-.2v-.1l.2-.3.4-.5v-.1l.3-.4.3-.3v-.2l.4-.4.1-.1.3-.5.1-.1.3-.5.7-.8.1-.3.3-.3.2-.4.3-.2v-.3l.3-.4.4-.4.2-.2v-.2l.2-.3.3-.2.2-.4.1-.1.1-.3.3-.3.2-.3h.1l.1-.2.2-.3.1-.2.2-.3.2-.2.2-.2.3-.4v-.3l.5-.3.1-.3.2-.2.1-.2.4-.4.2-.2a1 1 0 1 1 1.3 1.6l-.2.2-.1.2-.2.2v.2l-.4.4v.1l-.2.2-.3.3-.1.1-.2.3-.1.1-.2.3-.2.3-.2.4-.3.3-.2.2v.3l-.3.2-.1.3-.3.3-.1.1v.2l-.4.3-.1.2-.4.5-.1.2-.3.5h-.1v.2l-.5.5-.1.2-.7.9-.2.4-.3.3-.3.5-.2.2-.2.3-.5.6-.1.4-.4.3v.2l-.3.4-.2.1v.2l-.3.3-.3.4-.2.3-.1.1-.3.5-.2.2v.1l-.2.4-.3.2-.1.2-.2.2v.1l-.2.3-.4.6-.2.2-.5.8-.2.3-.4.6-.2.3-.3.3-.1.3-.2.2-.2.2-.2.2-.2.5-.2.2v.2l-.3.3-.3.4-.4.4-.4.8-.3.2-.2.2-.1.4-.2.2-.2.2v.2l-.3.3-.2.2-.2.3v.1l-.2.1-.3.6-.2.3-.1.2-.2.2-.1.1v.2l-.5.5-.1.3-.3.2v.1l-.2.3-.3.4-.1.1v.1l-.2.3-.2.3-.3.3-.3.5-.2.3-.2.2-.3.5-.2.3-.2.3-.2.3-.1.1-.2.3-.3.3v.2l-.3.4-.3.4-.2.2-.3.4-.2.3-.2.3-.1.1-.3.5-.2.2-.2.3-.1.2-.4.5v.2l-.4.4-.1.2-.4.7-.3.2v.1l-.2.3-.2.2-.1.2-.5.7-.1.2-.2.2-.2.3-.1.2-.1.2-.4.4-.2.3-.4.5-.1.3-.2.3-.1.1v.1h.5l.2-.2h.3l.2-.3h.3l.2-.2.2-.2h.3l.2-.2h.3l.2-.1.2-.3.2-.2h.2l.2-.3h.3l.3-.1h.2l.3-.2.2-.3h.2l.2-.2.2-.3.4.2.1-.3.3-.2h.1l.2-.3h.3l.2-.2h.3l.2-.1.2-.3h.3l.2-.3h.2l.3-.1.3-.2.2-.1.2-.2.2-.2.3-.2.1-.2.1-.3.2-.3v-.8l.2-.3.2-.2v-.2l.2-.3-.1-.3v-.5l.1-.3.2-.2v-.6l.2-.2v-.6l.2-.2v-.6l.3-.2v-.6l.3-.2.2-.2.2-.1v-.4h.4v-.4l.2-.2.2-.1.3-.1.2-.2.2-.2.2-.2h.3l.2-.2.2-.2h.3l.2-.3.2-.2.2-.2h.3l.2-.2.2-.2h.3l.2-.2.2-.2.1-.3.3-.1h.4l.2-.2.2-.1.2-.2.2-.2h.3l.1-.3h.3l.2-.3.3-.1.2-.2.2-.1h.3l.2-.3.3-.1.1-.2.2-.3.1-.2.3-.2.1-.2.2-.2.3-.2v-.6l.3-.2v-.3l.2-.2v-.5l.1-.3.2-.2v-.3l.3-.2-.2-.3.3-.2-.1-.3.3-.2v-.8l.2-.3v-.3l.2-.2.1-.2v-.3l.2-.2v-.3l.1-.2v-.3l.2-.3.1-.2-.1-.3.1-.3.3-.1v-.4l.1-.2.2-.2-.1-.3.2-.2v-.3l.2-.2v-.3l.3-.1v-.3l.2-.3.1-.2.3-.1.1-.3.2-.2.2-.2.3-.1h.2l.3-.2.2-.2h.3l.2-.3.1-.2.2-.3h.6l.3-.2.1-.2.2-.3.2-.1h.3l.3-.2.1-.2.2-.3.2-.2h.3l.3-.2.1-.2h.4v-.3l.2-.2.2-.2.2-.1.2-.2v-.3l.3-.2v-.2l.2-.2.1-.3.2-.2.2-.2.1-.2.2-.3h.3v-.7l.3-.1.1-.3.2-.2v-.3l.3-.2.1-.2.2-.2.2-.2.2-.2v-.3l.3-.2v-.6h.4v-.3l.3-.2.2-.2v-.3l.3-.2.1-.2.2-.2v-.3l.3-.2.1-.2.2-.2v-.4l.2-.1.2-.2v-.3l.3-.2v-.2l.3-.3v-.2h.4v-.4l.2-.2.2-.2.2-.2v-.6l.3-.2.2-.2.1-.3.1-.2.2-.2.3-.1v-.4h.3v-.7l.4-.1v-.3l.2-.2.1-.2.2-.3.2-.2.1-.2.3-.1.1-.3v-.3l.2-.2.1-.3.1-.2h.4v-.7l.3-.2h.3v-.4l.2-.2.2-.2.1-.3.2-.2.1-.2v-.3l.4-.1.2-.2v-.4l.2-.1.2-.2v-.3l.2-.2v-.3l.4-.1.1-.3v-.3l.3-.2.2-.1.1-.3.2-.2v-.3l.1-.3h.3l.2-.3v-.3l.2-.2.2-.2v-.3l.3-.1v-.4h.4v-.4h.3v-.4l.2-.2.1-.2.1-.3.3-.2v-.3l.2-.2.3-.1v-.3l.1-.3.2-.2.2-.2.2-.2.1-.2.2-.2v-.3l.2-.2.2-.3.1-.2.3-.2v-.3l-.2-.2z" fill="#0a669e"/><path d="m2.5 441.8.2-.3.1-.3.4-.5.2-.3.4-.4v-.2l.2-.2.2-.3.2-.2v-.2l.6-.7v-.2l.3-.2.2-.3.3-.3.4-.7.1-.2.3-.4.1-.2.4-.5.1-.2.2-.3.2-.2.3-.5.1-.1.2-.3.2-.3.3-.4.2-.2.3-.4.2-.4.1-.2.3-.3.2-.3.1-.1.2-.3.2-.3.1-.2.1-.1.3-.5.2-.2.2-.3.3-.5.3-.3.2-.3.1-.3.2-.2.3-.4.2-.3.3-.3.1-.3.4-.5v-.2l.2-.1.2-.2.1-.2.2-.3.3-.6h.1l.1-.2.2-.3.2-.2.2-.3.1-.2.2-.2.2-.2.1-.4.2-.2.3-.2.4-.8.4-.4.3-.5.2-.2v-.2l.3-.2.2-.5.2-.2.2-.2.2-.2v-.3l.4-.3.2-.3.4-.6.2-.3.4-.7v-.1l.3-.2.4-.6.2-.3v-.1l.2-.2.1-.2.3-.2.1-.4.1-.1.2-.2.3-.5.1-.1.2-.3.3-.4.2-.3.1-.2.2-.1.2-.4.1-.2.4-.3.1-.4.5-.6.2-.3.2-.2.3-.5.3-.3.2-.4.7-.9.1-.2.4-.5v-.1l.2-.1.3-.5.1-.2.4-.5.1-.2.3-.3v-.2l.2-.1.3-.3v-.3l.3-.2.1-.3.2-.2.3-.3.2-.4.2-.3.2-.3.3-.4.4-.4.1-.2h.1l.3-.5.1-.2.2-.2.1-.2.2-.2a1 1 0 1 0 -1.3-1.6l-.2.2-.4.4-.1.2-.2.3-.1.2-.4.3-.1.3-.3.4-.2.2-.2.2-.2.3v.2l-.3.3v.1l-.2.1-.2.3-.3.3v.3l-.2.1-.2.3v.1l-.3.2-.1.3-.1.2-.2.2-.4.4-.2.4-.1.3-.3.2-.2.4-.3.3-.1.3-.7.8-.3.5v.1l-.4.5-.1.1-.3.4-.1.2-.3.3-.2.4-.1.1-.4.5-.2.3-.2.3-.2.3-.4.5-.2.3-.2.2-.3.5-.1.2-.2.3-.1.1-.2.2-.2.3v.1l-.3.4-.2.3-.1.2-.2.2-.3.3-.4.8-.4.6-.2.1-.1.3-.4.4-.1.3-.2.2-.1.2-.2.2-.3.4-.2.2-.2.4v.1l-.4.5-.3.4-.3.5-.1.1-.2.2-.5.6v.2l-.2.1-.2.4v.1l-.2.2-.2.2-.1.3-.2.1-.2.4-.2.3-.2.3-.2.2-.1.2-.3.3-.1.3-.3.3-.1.3-.2.1-.2.4-.1.2-.3.3-.2.3-.2.3v.1l-.4.5-.2.3-.2.3-.2.2-.3.5-.3.3v.2l-.2.2-.2.2v.2l-.3.3v.1l-.4.3-.1.4-.2.2-.2.3-.2.2-.3.4-.2.3v.2l-.3.2-.3.5-.3.4-.1.1-.4.6-.2.3-.1.2-.3.3-.3.5-.1.2-.1.1-.3.4-.1.2-.2.2-.2.3-.2.3-.3.3v.3l-.2.1-.1.2-.3.3-.1.3-.3.3-.2.3-.5.7-.1.2v.1l-.3.4v.1a2.2 2.2 0 0 0 .2.3l.3.3h.1a2.4 2.4 0 0 0 1.1.4l.2-.2zm109.1-127.8-.1-.3zm1.6 3.7v.6l.2.2v.3l.1.2v.3l.1.3.2.2v.3-.6l-.2-.3v-.2l-.2-.3v-.2l-.1-.3v-.5l-.2-.3v.3zm.8 5.4v.3l.1.2v.1-1l-.1.1zm-.1-2.1v.5l.1-.1v-.3l-.1-.2v-.3.3zm-1.3-5-.2-.2.1.2zm1.4 6.3v.2l.1-.3v-.4l-.2.2v.3zm-1.1-5.3v-.3l-.1-.1v.4zm1.2 7.5v-.4zm-59.1-20.5.1-.2.2-.2.1-.3v-.2.2l-.2.3-.1.2-.2.2v.3zm-2 3.5v.3zm.8-1.7v.2zm-.1.4-.1.2v-.2zm-1.6 3.3-.2.3zm4.5-8-.1.1v-.1zm-2.2 3.4-.2.3zm-2.7 5.4-.1.2-.1.2.1-.2v-.2zm5.5-9.5h-.2l-.1.3.1-.2v-.1zm-6.4 11.7.1-.3v-.2l-.1.2v.3l-.2.3h.1zm63.2 12.8v.3l.1.3-.1.2v.7-.7l.2-.3v-.3l-.1-.3v-.2.1l-.1.3zm-7.6-18.3-.1-.2.1.3zm3.8 4.7v-.1zm-60 2.2v.1h-.2v-.1zm48.5-13.4h-.2zm-48.7 14.2h-.1l-.2.3.2-.3zm41.7 1.9v-.3.2zm-9.6 6.9.2.1h.2l-.1-.1h-.4zm-1.1-.5h.4-.2zm1.7.7v.1h.4l-.3-.1zm-2.4-1.4-.2-.2-.2-.2h-.3l-.1-.3-.2-.2v-.3l-.2-.2-.1-.1.2.3v.3l.3.2.1.2.3.1.1.3h.3l.1.3h.1zm6.1 1.5h.4l-.2-.1zm-.6.2h-.8 1v-.1h-.3zm-1.7 0h-.1l-.3-.1h-.4.4l.3.1h.2l.3.1h.3l-.3-.1h-.3zm-5.5-3.8v.3l.2.1v-.2zm8.5 3.4h.2l.3-.2h-.2zm-8.1-10.1.2-.2.2-.3.1-.2.2-.2.2-.2.2-.1.2-.3-.3.2-.2.2-.2.2-.2.2v.2l-.3.2v.3l-.3.2v.2-.2l.3-.2zm-.8 1.7.2-.3v-.2l.1-.2-.1.2v.2l-.2.3v.2l-.1.3.1-.2zm.2 4.5v-.3l-.1-.2v-.3l-.2-.2v-.3l-.2-.3v-.1.4l.2.3.1.2v.3l.2.2v.3l.1.3v.2-.3zm-.5-2.4.1-.2v-1.1.2l-.1.3v1.3zm12.4-4.3-.2-.3v.1zm23.4 14.7v.5l.2-.2v-.5zm-23.5-6.1v-.2zm1.5-4.5v-.1zm-.4-2.1v-.4.2zm.1 4v.2l.1-.3v-.1l-.1.3zm-.3-4.6.1.2v-.2l-.2-.3zm-.4-.7.2.1-.1-.2-.2-.2h-.1zm-1.7-2-.3-.1zm8.9-11.7.2.2-.1-.1h-.1zm-18.5-8.6h-.2l.2.1h.3l.2.1-.2-.1h-.3zm11.6 4.3.1.2h.2l-.1-.2zm-.6-.3.3.1v.1-.1h-.3zm1.3.6h-.2.1l.3.1zm-3.7-1.9h-.2.2l.1.2zm7.6 4.5.1.1.3.1-.2-.2zm-1.4-1.1.1.1h-.1zm1 .7v.2h.3l-.1-.1zm-1.8-1.2v.2h.1v-.1zm-6.2-3.1.3.1h.2-.2zm5.6 2.8.2.2h.3-.2zm-12.6-5.1h-.3.3l.3.1h.1l-.1-.1zm16.7 7.8-.2-.2-.2-.2-.2-.1h-.3.2l.2.2.1.2.2.1.3.2.2.1-.2-.2zm-16-7.6h.2zm1.8.4h.3zm-1-.2h.2zm2.7.7h-.2l-.3-.1-.2-.1h-.3.5l.3.2h.2l.3.2h.1-.1zm3.4 18.3h.2l-.2-.1h-.3zm-5.5-.2.2-.2-.3.1-.2.1-.1.2h.2zm6-16.4h.1l.2.1h-.1zm-5.3 16.1h.2-.5l-.2.1h.6zm.9-.1h.3-.7zm5.9-15.4.1.2h.3-.2zm-8.1 16h-.2l-.1.2h.2v-.2zm5.6-.2.2.1-.2-.2h-.3zm1.9-16.1h-.2l.3.1.2.1-.2-.2zm-.8 16.6-.1-.1h-.3.2zm-7.4.1-.2.1v.1h.1zm-20.2-14.7h.1v-.1zm.7-.6-.2.2.3-.1.2-.2zm1.3-.9.2-.2zm-2.8 2.2h.1zm-1.5 1.6h.2v-.1l-.2.2zm1-1 .1-.1h-.1zm6.5-4.7v-.1l.2-.1h-.2zm7-2.2.1.1.3-.1zm-5.6 1.5h.2l.2-.2h-.3zm-.6.2h.3l.1-.2h-.2zm7-1.6h.4zm-2.6.3h-.1.4l.2-.1h-.5zm-3.3.9h.2l.2-.1h-.3l-.2.1zm2.5-.8-.2.1h-.6l-.3.2h-.2l-.1.1h.4l.3-.1h.2l.3-.2h.5l.2-.2h-.5zm8.2-.3h-.4.7zm-13.6 2.3v.1h.1l.3-.1.1-.1h-.2l-.2.1zm11.4-2.6-.1.1h.5-.4zm-1.4 0h-.5l-.3.1h1.2-.4zm2.5.2h-.4.9z" fill="#153159"/><path d="m49.5 316v.5l-.2.3v1.1l-.2.2v1.9l-.1.3v.3l-.1.2v1.2l-.2.3.1.3v1.3l-.1.3v5.6l.1.3v1.6l.1.3v.5l.1.3v.5l.2.3v1.6l.2.2v.6l.2.2-.1.3.1.3v.3l.1.2v.3l.2.2v.8l.2.3.1.2v.3l.1.3v.3l.2.2v.3l.2.2v.3l.2.2v.6l.2.2v.3l.1.2v.3l.3.2v.3l.1.2.1.3.2.2.1.2.2.3v.3l.1.2.2.2v.3l.3.2v.2l.1.3.2.2.1.3.2.2.2.2v.3l.3.1v.3l.3.2v.3l.2.2.3.2v.2l.2.2.2.3.2.2.2.1.2.2.1.2.2.3.2.2.2.2.2.1.2.2.1.2.2.3.3.1.1.2.2.2.3.1.2.2.2.1.2.2.2.2.2.2.2.2.3.1h.3l.1.3.3.1.2.2h.3l.2.2.2.1.3.1.2.2.2.1.3.1.2.2h.3l.2.2h.3l.2.2h.3l.2.2h.3l.2.2h.3l.3.1.2.1.3.1.2.2h.3l.2.1h.6l.2.1.3.2.2.1h.8l.3.2h.8l.3.2h1l.3.2h3.5l.3.1h.8l.3-.2.2.1h1.1l.3-.2h.3l.2.1.3-.1h1.1l.2-.2h.9l.2-.2h.8l.3-.1h.5l.3-.2h.5l.3-.2h.8l.2-.2h.6l.2-.2.3-.1h.5l.3-.1h.3l.2-.2h.3l.2-.2.3-.1h.2l.3-.2h.3l.2-.1.3-.1.2-.1h.6l.2-.2h.3l.2-.1.3-.2h.2l.3-.2h.2l.3-.1.2-.2h.3l.2-.2h.3l.2-.2h.3l.2-.2.3-.1.2-.1h.3l.2-.2.3-.1.2-.2h.3l.2-.1.2-.3h.3l.2-.2h.3l.2-.2h.3l.2-.2h.3l.2-.2h.2v-.1l.3-.2.3-.2v-.3l.3-.1.1-.3.2-.2h.3l.2-.3.2-.2.2-.1.2-.2.2-.2.1-.3.2-.2.2-.2.2-.1.2-.3.2-.2.2-.1.2-.2.2-.2.1-.2.2-.2.3-.1.1-.3.2-.2.2-.1.2-.2.2-.2.2-.2.2-.2h-.2l-.5-.5-.2-.3h-.2l-.7-.6-.1-.1-.2-.3-.5-.3-.2-.3-.3-.2h-.1l-.5-.6-.2-.3-.2-.2-.3-.3-.6-.3v-.4h-.3l-.2-.4-.2-.2-.2-.2-.2-.3-.3-.2-.2-.4-.3-.2-.1-.3-.1-.2-.6-.1v-.4h-.2l-.1-.4-.3-.2-.1-.3-.2-.1-.2-.4-.2-.3-.3-.3v-.1l-.4-.2v-.3l-.4-.5-.1-.2-.2-.2-.2-.4-.4-.3v-.2l-.3-.1v-.5l-.4-.2v-.4l-.4-.3v-.4l-.1-.1-.3-.5v-.2l-.2-.1-.2-.4-.3-.3v-.6l-.2-.2-.3-.3v-.1l-.4-.6-.2-.5v-.2l-.1-.2-.2-.2-.3-.6v-.2l-.2-.4v-.3l-.3-.2-.4-.8v-.2l-.3-.7-.1.1-.3.1h-.2l-.3.2-.2.1h-.3l-.2.1h-.6l-.2.2-.3-.1h-.3l-.3.1h-.4l-.3-.2h-.8l-.1-.2h-.4l-.2-.2-.3-.2h-.2l-.2-.3h-.5l-.2-.2-.2-.1-.2-.1-.2-.3-.3-.1-.1-.3h-.3l-.1-.3-.2-.2-.1-.3-.2-.2v-.1l-.1-.1-.2-.2v-.3h-.1l-.1-.2-.1-.3v-.3l-.2-.2v-.3l-.1-.2-.1-.3v-.5l-.1-.3v-1.4l.2-.2v-.6l.1-.2.1-.3v-.2l.2-.2.1-.3.1-.3v-.2l.3-.2v-.3l.3-.2.1-.2.2-.2.2-.2.2-.2.2-.1.1-.1h.2v-.2h.1l.1-.2h.1l.2-.2.3-.1v-.1l.2-.2h.4l.2-.2h.2l.3-.2h.2l.3-.2h1.4v-.1h1.6l.5.2.3.1h.2l.3.1.2.2h.3l.2.2h.3v.2h.2l.1.3h.4l.1.2.3.3.2.1.2.2.2.2h.2v.1l.2.3v.2l.2.1.1.1.2.2v.2l.2.3.1.3.1.2.1.3v.5l.2.3.1.2v.4l.1.2v.8l-.1.2v1.3h-.1l-.1.3-.1.3-.1.3v.2l-.2.3-.1.2-.2.2-.1.2-.2.3-.1.2v.1l-.1.2h-.3l-.1.3-.2.1.2.6v.3l.2.5v.2l.1.2.2.1.3.5v.4l.5.4v.4l.1.1.1.3.3.5v.4l.4.2.1.5.5.8.1.2.1.4.3.4.1.3.2.2.4.6v.1l.1.1v.2h.1l.5.7.3.1v.4h.1l.3.7.2.2v.2l.6.3v.3l.2.1.1.4.1.1.5.7.3.2v.3h.3v.2l.5.2v.3h.1l.2.5.3.2.1.3h.2v.2l.3.2.2.4.2.2.3.3.2.1.6.6v.2l.4.4.3.2.3.4.5.1.2.6.3.2.5.3v.1l.5.2v.3h.3l.7.8v.2h.2l.2.2.4-.2.1-.2.1-.2.2-.2.2-.2.2-.2.2-.2.1-.2.2-.3.1-.2.3-.2v-.2l.3-.2v-.2l.2-.2.3-.2.1-.2.1-.3.3-.2.1-.2v-.3l.4-.1v-.3l.2-.2.2-.2v-.3l.2-.2.2-.2.1-.3.2-.1v-.3l.2-.2.1-.3.2-.2.2-.2.1-.3.2-.2v-.2l.2-.3v-.3l.2-.2v-.3l.3-.1v-.3l.1-.3.1-.2.2-.3.1-.2v-.3l.2-.2v-.6l.2-.2.2-.2v-.6l.2-.2v-.3l.1-.2.1-.3.1-.2v-.3l.1-.3v-.3l.2-.2v-.6l.1-.2.1-.3v-1.1l.2-.2v-.3l-.1-.3v-.3l.1-.1v-1.9l-.1-.3v-.1l.1-.2-.1-.2v-.8l-.1-.3v-1l-.1-.1v-.3l-.2-.2v-.3l-.1-.3-.1-.2v-.3l-.1-.2v-.3l-.1-.3-.2-.2v-.4l-.1-.1-.1-.3v-.2l-.2-.2v-.2l-.2-.2v-.4l-.1-.2-.2-.2-.1-.3v-.3l-.3-.1v-.3l-.2-.2v-.3l-.3-.2v-.3l-.2-.2-.1-.3-.2-.2-.1-.2-.2-.2-.2-.2v-.3l-.2-.2-.2-.2-.2-.2v-.3l-.2-.2-.3-.1-.2-.3v-.3l-.2-.2-.2-.2-.2-.1-.2-.2-.1-.3-.3-.1-.1-.2-.2-.2-.2-.2-.2-.2v-.3l-.3-.1-.2-.2-.2-.2-.1-.3h-.3l-.1-.4-.2-.2-.2-.1-.3-.2-.2-.1-.1-.3-.3-.1-.1-.3-.2-.1-.2-.2-.2-.2h-.3l-.2-.3-.2-.2-.2-.2-.1-.2-.3-.2h-.2l-.2-.2-.2-.2-.3-.1-.2-.2-.1-.3-.3-.1-.2-.2-.2-.2-.2-.1-.2-.2-.2-.1-.3-.1-.2-.2-.2-.2-.3-.1-.2-.2h-.1l-.1-.1h-.1v-.1h-.1l-.3-.2-.2-.1-.2-.2-.2-.2h-.6l-.3-.3-.2-.1-.1-.2-.2-.2h-.2l-.3-.2v-.1l-.1-.2h-.3l-.1-.2-.3-.2-.2-.1-.2-.2h-.2l-.1-.1-.2-.2-.3-.1-.2-.1v-.1l-.2-.1h-.3l-.2-.3h-.3l-.2-.2-.2-.1-.2-.2-.3-.2h-.2l-.1-.1h-.3l-.1-.2h-.1l-.1-.1h-.1l-.3-.2-.2-.2h-.3l-.1-.2h-.4l-.2-.2h-.3l-.2-.2h-.1l-.2-.1-.1-.1h-.1v-.1l-.2-.1-.2-.1h-.3l-.3-.2-.2-.2h-.2l-.2-.1-.9-.3-.7-.3h-.3l-.3-.3h-.2l-.3-.1h-.3l-.2-.2h-.3v-.1h-.2l-.2-.1-.3-.1h-.5l-.1-.1h-.1l-.1-.1h-.5l-.1-.1-.1-.1h-.9v-.1h-.5l-.2-.1h-.2l-.1-.1h-.7l-.1-.1h-.4l-.3-.1h-.4l-.1-.1h-3.5l-.3.1h-.8l-.2.1h-.4l-.2.2h-.6l-.2.1h-.3l-.2.1-.3.1h-.2l-.3.2h-.8l-.3.2-.2.2h-.1l-.3.2h-.4l-.1.1h-.3l-.3.2-.2.1h-.1l-.1.2h-.2v.1l-.3.1-.2.2h-.5v.1h-.3l-.2.2-.2.2-.2.1-.3.2h-.2l-.2.2-.2.2-.3.2-.1.2h-.2l-.2.3h-.3l-.2.2v.3h-.1l-.2.2h-.3v.1l-.2.1-.1.2-.2.2-.3.2-.2.2-.2.1-.2.2-.2.3-.1.2h-.1l-.2.1-.1.3-.2.2-.2.1v.2l-.1.1h-.2v.1l-.2.3-.3.1-.1.3-.2.2-.1.2-.2.2-.1.2-.1.2-.2.3-.3.1-.1.3v.1l-.1.1-.3.2-.1.2-.1.3-.2.2-.1.3-.2.2v.2l-.2.3-.2.2-.1.2-.1.3-.3.1v.3l-.2.2-.1.3-.2.2-.2.2v.2l-.2.2v.4l-.1.1-.2.2v.2l-.1.2-.2.2-.1.2v.3l-.3.2v.3l-.2.2-.1.2-.1.3-.2.2v.3l-.2.2v.1l-.1.2v.2h-.1v.3l-.2.2-.2.2v.3l-.2.2-.1.3-.1.2v.6l-.2.2-.1.2-.2.3v.3l-.2.2v.2l-.1.2h-.1v.7l-.2.3h-.1v.1l-.2.3v.5z" fill="#2a61b1"/><path d="m125 251.7.4-.7-.2-.4-.3.1h-.2l-.5.2-.3.1-.5.1-.2.2h-.6l-.2.1-.4.1-.6.2-.1.1-.6.3h-.7l-.6.3h-.4l-.4.4-.7.2h-.1l-.7.3-.2.1-.3.1-.2.2h-.5l-.3.4h-.2l-.5.1-.1.2h-.1l-1 .4v.2h-.3l-.6.3h-.3l-.4.4-.3.1-.3.3 1.7 1.5.2-.1h.4l.3-.4.8-.3.2-.3h.5l.3-.3h.1l.4-.2.4-.1.1-.2h.6l.2-.3h.2l.1-.2.5.1.4-.4h.5l.4-.4h.2l.4-.2h.3l.3-.2h.3l.4-.2h.5l.3-.3h.6l.3-.2.6-.2h.2l.5-.2.2-.1h.3v-.5l-.1-.7zm59.2 77.3-.7.3h-.6l-.3.5v.1l-.4.6v.1l-.4.4v.3l-.3.5-.1.3-.6.4v.3h-.2l-.2.5-.2.3-.3.4-.3.4-.6.7v.1l-.3.4-.5.2v.5l-.7.6v.1l-.2.3-.5.2v.2l-.5.7-.4.4-.2.3-.2.1-.2.2-.6.6-.1.3-.4.2-.2.3h-.3l-.4.5v.2l-.5.1-.1.3h-.2l-.1.3-.4.1-.1.4-.3.1-.1.2h-.1l-.3.4-.3.1-.5.4h-.1l-.5.6h-.1l-.4.2-.2.3-.2.1-.1.1h-.2l-.5.5-.2.2-.3.2-.5.2-.2.3h-.2l-.4.2-.2.2-.4.2-.2.2-.6.2v.2h-.5l-.3.5-.3.1-.2.2h-.6l-.2.4h-.2l-.1.1h-.4l-.2.3-1 .5-.3.1-.2.2-.2.1-.2.2-.5.1-.2.1h-.4v.2l-.7.2-.3.2-.2.1-.2.2h-.3l-.3.1h-.5v.1l-.8.3h-.4l-.3.3-.4.1-.3.2h-.4v.1h-.6l-.3.3h-.4l-.7.2-.3.1-.5.1-.1.1h-.2l-.2.2h-1.2l-.3.3-.1-.1-.5.1-.5.1-.2.1h-.3l-.4.2-.3-.1-.6.2-.5-.2-.5.4-.4-.1-.2.2-.7-.2-.3.3h-.2l-.5-.1h-.7l-.3.1h-.8l-.3.1h-.6l-.1.1h-.8l-.3-.2-.4.2h-2l-.6-.1h-1.9l-.5-.2-.3.1-.6-.2h-.6l-.7-.1h-.8l-.4-.2h-.6l-.4-.2h-.7l-.4-.2h-.6l-.2-.1-.6-.1h-.4l-.4-.3h-.7l-.3-.4-.5.2-.3-.1-.4-.3h-.8l-.3-.3h-.6l-.3-.3-.6-.2h-.2l-.3-.3h-.4l-.5-.1-.3-.1h-.2l-.4-.3-.5-.2-.2-.2h-.3l-.2-.2h-.5l-.3-.3h-.2l-.8-.5h-.4v-.1l-.6-.3h-.1l-.2-.2-.5-.2h-.3l-.2-.1-.1-.1-.3-.2-.3-.3h-.2l-.2-.2-.4-.2h-.3l-.6-.5-.1-.3-.5-.1-.3-.4h-.4l-.5-.4-.3-.4h-.5l-.1-.2-.4-.3-.3-.1-.1-.3-.3-.2-.2-.2-.5-.2h-.1l-.1-.2-.5-.3-.1-.1-.2-.2v-.2l.3-.2.2-.2.1-.2.2-.2.2-.2.2-.2v-.3l.3-.1.1-.3.2-.2.2-.2.1-.2.3-.2.1-.2.1-.2.2-.2.1-.3.1-.2.3-.2v-.3l.2-.2.2-.2.2-.2.2-.2v-.3l.2-.2v-.3l.3-.1.2-.3v-.2l.3-.2v-.3l.2-.2.1-.3.1-.2.1-.3.2-.2.2-.2v-.3l.2-.2.1-.2.2-.3v-.5l.2-.3.2-.2v-.2l.1-.3.2-.2v-.3l.2-.2v-.3l.2-.2v-.3l.2-.3v-.2l.1-.3v-.5l.1-.3.1-.2v-.3l.2-.3v-.5l-.2.3v.9l-.2.2v.3l-.2.2v.3l-.1.2v.3l-.1.3-.2.2-.1.2-.1.3v.3l-.1.2-.1.3-.1.2-.2.3v.2l-.2.3v.3l-.3.1v.3l-.2.2v.3l-.1.3-.1.2-.2.2v.3l-.3.2-.2.2v.2l-.2.3v.3l-.3.1v.3l-.3.2-.2.2v.3l-.2.2-.2.2v.3l-.3.1v.3l-.2.2-.3.2v.3l-.2.2-.3.2-.1.2-.1.2-.2.2-.2.2-.2.2-.1.2-.2.3-.1.2-.2.2-.2.2-.2.2-.2.2v.2l-.3.2-.2.1h-.3l-.1-.1v-.2l-.8-.7h-.2l-.1-.4-.5-.2v-.1l-.5-.3-.3-.2-.2-.6h-.5l-.3-.5-.3-.3-.4-.3v-.2l-.6-.6h-.1l-.1-.2-.3-.1v-.1l-.2-.2-.2-.5h-.3v-.2l-.2-.1v-.3l-.4-.2-.2-.5-.1-.3-.5-.2v-.1l-.2-.1-.1-.3-.3-.2-.5-.7-.2-.5h-.1v-.4l-.6-.3-.1-.2-.2-.2-.3-.6v-.5l-.4-.1-.5-.6v-.3h-.2v-.2l-.4-.6-.2-.2-.1-.3-.3-.4v-.4l-.2-.1v-.1l-.4-.8h-.2v-.5l-.5-.2v-.5l-.3-.4-.1-.3-.2-.1v-.4l-.3-.4-.1-.4-.3-.5-.2-.1v-.2l-.1-.2-.2-.5v-.3l-.2-.5-.2-.3-.2-.5-.1-.4-.2-.5-.1-.2v-.3l-.1-.6-.3-.2v-.3l-.1-.2v-.8l-.1-.2-.3-.7-.1-.3v-.4l-.2-.4v-.6l-.3-.2v-.6l-.3-.6v-1l-.2-.4v-1.4l-.2-.4-.1-.2-.5-.1-.3-.1h-1.2l-.1.3.2.6.1.3v1.3l.2.3v.3l.1.3v.6l.2.4v.3l.1.4v.4l.3.2v.5l.1.1v.3l.2.4v.2l.2.3-.2.6.4.3v.3l.1.2v.3l.2.6.1.1.1.4v.2l.2.4.3.6v.2l.1.1.1.4.2.4.1.2v.2l.3.7v.2l.4.8.2.2.1.3.2.4v.2l.3.6.2.2v.4l.3.5.3.5v.2l.4.3.1.2v.6l.4.2.2.4.2.2v.2l.3.5.1.1v.4l.4.3v.4l.4.2v.4l.3.2v.2l.4.3.2.4.2.2v.2l.5.5v.3l.4.2v.1l.3.3.2.3.2.4h.2l.1.4.3.2.1.4h.2v.4l.5.1.2.2.1.3.3.2.2.4.2.1v.1l.3.3.2.2.2.2.2.3.3.1v.4l.6.3.3.3.2.2.2.3.5.5h.1l.3.3.2.3.5.3.2.3h.1v.1l.7.6h.2l.2.3.5.5h.2l-.2.2-.2.2-.2.2-.2.2-.2.1-.2.2-.1.3-.3.1-.2.2-.1.2-.2.2-.2.2-.2.1-.2.2-.2.3-.2.1-.2.2-.2.2-.1.3-.2.2-.2.2h-.2l-.2.3-.2.2-.3.1-.2.2v.3l-.3.1-.2.3-.2.1v.1l-.2.2h-.2l-.1.1-.2.1-.3.1-.2.2h-.3l-.2.1-.3.1-.2.2h-.3l-.2.3h-.5l-.2.3h-.3l-.2.2-.3.1h-.2l-.3.2-.2.1-.3.1-.2.1-.3.1-.2.1-.3.1-.2.2h-.6l-.2.3h-.2l-.3.2h-.2l-.3.1-.2.1h-.6l-.3.2h-.2l-.2.3h-.8l-.3.2-.2.2h-.3l-.2.1h-.3l-.3.2h-.8l-.2.2-.3.1h-.3l-.2.1-.3.1h-.5l-.3.1h-.2l-.3.1-.3.1h-.5l-.3.1-.2.1h-.6l-.2.2h-.9l-.2.1h-.6l-.2.1h-1.1l-.3.2h-2.1l-.3.1-.3-.1h-3.4l-.3-.1h-.8l-.3-.1-.2-.1h-.4l-.2-.2-.3.1-.3-.1h-.2l-.3-.1h-.3l-.2-.1-.3-.2h-.8l-.2-.2h-.3l-.3-.2h-.2l-.3-.2h-.5l-.2-.2-.3-.1-.2-.1-.3-.1-.2-.1-.3-.1-.2-.1-.3-.1-.2-.2h-.3l-.2-.2-.2-.2h-.4l-.2-.2-.3-.1-.2-.1-.2-.2-.3-.1-.1-.3h-.3l-.3-.1-.2-.2-.2-.2-.2-.2-.2-.2h-.2l-.2-.3-.3-.1-.2-.2-.2-.2-.2-.1-.2-.3v-.2l-.3-.2-.2-.1-.2-.2-.2-.2-.2-.3-.1-.2-.2-.2-.2-.1-.2-.2-.2-.3-.1-.2-.1-.3-.3-.1-.2-.2v-.3l-.3-.2v-.3l-.3-.1v-.3l-.2-.2-.2-.2v-.3l-.3-.2v-.3l-.1-.2-.3-.2v-.3l-.2-.2v-.3l-.1-.2-.2-.3v-.2l-.3-.2v-.3l-.1-.2-.1-.3-.2-.2v-.3l-.1-.3-.1-.2-.2-.2v-.6l-.2-.2v-.3l-.2-.2v-.3l-.2-.2v-.6l-.1-.3v-.2l-.2-.3v-.2l-.1-.3v-.3l-.1-.2v-.3l-.2-.2v-.3l-.1-.3v-1.1l-.2-.2v-.6l-.1-.2v-.8l-.2-.3v-1.2l-.2-.3v-1.9l-.1-.3v-6l.1-.2v-1.9l.1-.3v-.3l.1-.2v-1.9l.2-.3v-.5l.1-.3v-.8l.2-.3v-.9l-.1.2v.5l-.2.2-.1.3-.2.2-.1.3v.2l-.1.3-.1.2v.3l-.2.3-.2.2v.2l-.2.3v.2l-.2.3v.5l-.2.3-.1.2-.2.2v.6l-.1.3-.2.2v.2l-.2.3-.1.2v.3l-.1.3-.2.2-.1.2v.3l-.2.2v.3l-.2.3v.5l-.2.2v.3l-.3.2v.6l-.2.2v.5l-.2.3-.2.2v.5l-.2.3-.2.2v.3l-.2.2v.3l-.1.2-.1.3v.3l-.2.2v.3l-.1.2-.1.3-.2.2-.1.3v.5l-.3.2v.3l-.2.2v.3l-.2.2v.3l-.1.3-.1.2-.1.3-.2.2v.6l-.2.2v.2l-.2.3-.1.2v.3l-.2.2-.1.3v.3l-.1.2v.3l-.2.3-.2.2v.3l-.1.2v.3l-.2.2-.1.3v.3l-.3.2v.5l-.2.3-.1.2v.3l-.2.3v.2l-.1.3-.1.2-.2.3v.3l-.2.2v.3l-.2.2v.3l-.2.2v.3l-.2.2v.6l-.1.2-.2.3v.2l-.2.3v.5l-.2.3-.1.2v.3l-.2.2-.2.2v.3l-.2.2v.6l-.3.2v.3l-.1.2v.3l-.1.3-.2.2v.3l-.2.2v.3l-.1.2-.1.3-.2.2v.3l-.2.2v.6l-.2.2v.3l-.1.2-.1.3v.2l-.2.3-.2.2v.8l-.2.3v1.2l.1.2v.6l.2.2.1.3.1.2.2.3.2.2v.2l.3.2.2.2.2.2.2.2.2.2h.3l.2.2.2.2.2.1.2.3h.3l.2.2.2.1.2.2.2.2.3.1.3.1.1.3h.3l.2.2.2.2h.3l.2.3.2.1.2.2.3.1.2.1.2.2.3.1.2.2.2.1.2.2.3.1.1.3h.3l.2.3h.3l.2.2.2.2.2.2h.3l.2.2.2.2.2.2h.3l.1.3.3.1-.1.1-.2.3-.2.4-.2.2-.2.3-.1.2-.2.2-.1.3-.1.1-.3.5-.3.2-.1.3-.3.4-.4.6-.3.6-.3.4-.2.2-.1.2-.2.3-.1.2-.2.3-.1.2-.2.2-.2.2v.2l-.5.8-.4.4v.2l-.2.1-.2.3-.2.3-.2.2v.3l-.3.4-.2.2-.3.4-.2.3-.1.3-.1.1-.2.3-.3.4-.2.3v.1l-.3.3-.6.9-.2.3-.6.9v.2l-.2.1-.2.3-.4.7-.2.2-.1.2-.2.3-.1.1-.5.8-.2.2-.3.4-.1.3-.2.2v.2l-.2.1-.4.6-.1.2-.2.2-.2.3-.1.3v.1l-.2.2-.2.3-.2.2-.1.2-.2.3-.1.2a1 1 0 1 0 1.7 1.2l.1-.3.2-.2.1-.2.2-.3.1-.1.1-.2.3-.3.1-.3.7-1 .2-.3.5-.7.2-.4.2-.3.3-.4.1-.2.2-.3.2-.2v-.2l.3-.3.2-.3.4-.5.2-.3.1-.3.4-.6.3-.5.6-.8.2-.3.2-.2.1-.3.3-.3.2-.3.2-.3v-.2l.2-.1.8-1.3.1-.2.2-.2.1-.2v-.2l.3-.2.2-.3.3-.4.4-.7.1-.2.2-.2.2-.3.1-.3.1-.1.2-.2.1-.3.2-.2.2-.3.2-.3.4-.5.8-1.2v-.2l.2-.1.3-.6.2-.2.1-.2.2-.2.2-.3v-.2l.2-.1.4-.5.1-.4h.2l.3.1.1.3.3.2.2.1.2.2.2.1.3.1.2.2.3.1.2.2h.3l.2.3.2.1.2.2.2.2h.3l.2.2.2.2h.3l.2.3h.2l.2.3.2.2.2.1.3.2.2.1.2.1.3.2h.2l.2.3.3.1.2.2h.3l.1.3.3.1.2.2.2.1.3.2.1.2h.1l.2.1h.3l.2.2.2.2.3.1.1.3h.3l.2.2.2.2.2.2h.3l.2.2.3.1.1.3h.3l.2.2.2.2.3.1.2.2.2.1.2.2.3.1.3.1.2.2.2.1.3.2.1.2.3.2h.2l.2.2.3.2.2.2h.3l.2.2h1l.2.2h.9l.2-.1h.6l.3-.2h.2l.3-.2h.3l.2-.2.2-.2.2-.2.2-.2.2-.1.3-.2.1-.2.2-.2.2-.2.2-.2.2-.1.3-.2v-.3l.2-.2.3-.1.2-.2.2-.2.2-.1.2-.2.1-.3.2-.1.3-.2.2-.2.2-.1.1-.3.2-.1.3-.2v-.2l.3-.2h.3l.1-.4.2-.1.3-.1.1-.3.2-.2.3-.1.2-.2.1-.2.2-.3.2-.1.2-.2.2-.2h.3l.1-.3.3-.2.1-.2.2-.2.2-.2.2-.1.2-.2.3-.2.1-.2.2-.2.3-.1v-.3l.3-.1.2-.2.2-.2.2-.2.1-.3.2-.1.3-.2.1-.2.3-.1.2-.2.2-.2.2-.2.1-.2.3-.1.1-.3.2-.2h.3l.2-.2.1-.3.2-.2.2-.2.2-.2h.3v-.4h.3l.2-.3.2-.2.2-.2.2-.2.2-.2.2-.2.2-.1.2-.2.2-.2.1-.2.3-.2h.2l.2-.3.2-.2.2-.2.2-.2.1-.2.2-.2.3-.1.2-.3.1-.2.3-.1.2-.1.1-.3.3-.1.2-.2.2-.2.2-.2.2-.2.2-.2.1-.2.3-.2.2-.2.1-.2.3-.1.2-.2.1-.2.2-.2.3-.1.2-.3.1-.2.3-.1.2-.2.2-.2.1-.2.3-.2.1-.2.3-.1.1-.3.2-.2.2-.2.2-.1.2-.2.2-.2.1-.3h.3l.2-.3.2-.1.2-.2.2-.2.1-.3.3-.1.1-.2.3-.1.2-.3.2-.2.1-.2.2-.2h.3l.2-.3.2-.1.2-.2.2-.2v-.3l.3-.2.2-.1.2-.3h.3l.1-.3.2-.2.2-.2.2-.2.3-.1.1-.2.2-.2.2-.2.2-.3h.2l.1-.3.3-.2.2-.1.2-.2.1-.3.2-.1.3-.2.2-.2v-.2l.3-.2.2-.2.1-.2v-.1h.1l.2.2.7.5.3.3.4.2.2.2h.2l.1.3.6.4h.1l.2.4.6.2.1.2.4.1.8.7h.3l.1.1.2.3.6.2.6.4.3.2.3.2.3.1.4.2.2.3.8.3h.3l.2.3h.4l.3.3h.2l.4.5h.4l.2.3h.4l.7.3.3.2h.3l.2.2h.6l.1.1.4.2h.3l.2.2h.1l.4.3h.2l.8.3h.2l.6.4h.5l.7.3h.1l.3.3.4-.1h.3l.5.3h1.2l.3.2.6.3h1l.4.3h.8l.3.2h.3l1 .1h.5l.2.2h.7l.4.2.6-.2.4.3h2.5l.5.3.4-.2.6.1h.6l.6-.2h.2l.7.2h.1l.3.1.4-.2h.9l.5.1.2-.2.2.1.5-.2h.3l.6.2.3-.2h1.1l.1-.1.5.1.3-.2h.8l.3-.1.6-.2.2.1.7-.2h.9l.2-.3h.3l.9-.1v-.1h.4l.3-.1h.3l.3-.2h.4l.3-.2.6-.2h.5l.2-.1h.6l.1-.2.5-.2h.2l.4-.2h.9l.2-.3.4-.2h.5l.4-.3.2-.1h.3l.6-.3.2-.2h.2l.1-.2.6.1.3-.3h.2l.3-.3.5-.2.3-.2.2-.1.2-.2.7-.3h.6l.1-.2h.3l.2-.3h.4l.1-.3.7-.3.3-.1.5-.4.7-.3.1-.3.5-.1.2-.3h.1l.2-.2h.1l.7-.5.1-.1.4-.2.4-.2.4-.4.1-.1h.3l.3-.4.3-.2.1-.1.6-.3.2-.3.4-.2.2-.4h.2l.4-.4.6-.2.1-.4h.2l.1-.3h.2l.2-.3h.4l.1-.4.5-.5.2-.3h.2l.1-.2.2-.1.7-.7.2-.3.2-.2.1-.1.2-.1.5-.4v-.3l.5-.3.1-.3.6-.1v-.4l.2-.3.5-.3v-.4h.3l.3-.7.5-.5.5-.3v-.4l.3-.2.2-.5v-.1l.5-.3.2-.5.1-.3.4-.3v-.2l.3-.3.2-.4.2-.3.4-.4v-.3l.4-.4v-.4l.4-.3v-.4l.7-.4v-.9h.2l-.6-.3-.7.2zm-97.2-35.7.2-.5v-.6l.1-.4.3-.4-.1-.4.2-.5v-.2l.3-.4-.1-.5v-.5l.2-.3v-.3l.4-.3v-.6l.1-.1v-.3l.2-.3v-.3l.3-.2v-.5l.2-.4.1-.5.2-.3v-.3l.3-.3v-.5l.3-.5.2-.4v-.2l.3-.6v-.1l.2-.2v-.4l.2-.1.4-.7.2-.4.1-.3v-.3l.1-.1.5-.5.1-.5.2-.2.3-.4v-.3l.2-.2v-.3l.2-.2.3-.3v-.1l.2-.2-.8-.5-1.2-.5-.1.2-.1.1-.4.7v.2l-.2.3-.1.3-.3.3-.1.4-.4.4-.2.5-.2.3v.3l-.2.4-.1.2-.2.3-.4.5v.1l-.2.3v.4l-.3.4v.3l-.5 1v.1l-.4.7v.2l-.2.2v.6l-.3.5-.3.3v.8l-.2.3-.1.5-.2.1-.1.8-.1.2-.2.5v.2l-.2.3v.1l-.1.9v.1l-.3.5v1l-.1.2v1h-.1l.7.4.9.3h.2l.1.1.2-.4z" fill="#153159"/><path d="m490.8 275.1-.4-.4-.4-.2-.4-.4h-.6l-.3-.3-.6-.2-.2-.2-.4-.1h-.2l-.6-.5-.5.2h-.2l-.3-.2h-.6l-.1-.1-.8-.1h-.1l-.4-.1-.4.1h-.5l-.4.2h-.4l-.4.2h-.3l-.3.2h-.3l-.2.2h-.7l-.4.5h-.7l-.5.6h-.5l-.4.7h-.4l-.7.7-.1.3-.3.1-.1.2-.6.3v.2l-.3.1v.4l-.4.2v.3l-.7.2v.4h-.1l-.4.8-.6.5-.5.7v.2l-.6.3-.2.6h-.1l-.7.5v.5l-.2.3-.5.3v.4h-.1l-.2.4-.2.2-.3.1-.2.5-.4.4v.3l-.4.1v.4h-.1l-.4.6v.2l-.6.5-.3.1-.1.6-.4.3-.2.6-.5.4v.3l-.4.2-.2.6-.5.5-.1.3-.2.1-.1.3-.4.4v.2l-.2.1v.4l-.3.2-.4.6-.3.3v.4l-.4.3-.1.2-.2.1-.1.3-.4.3v.1l-.4.2v.5l-.1.1-.1.2-.2.1-.2.4-.3.4-.5.3v.6l-.4.5v.1l-.4.2v.6h-.2v.3l-.2.1-.2.4-.2.3h-.1l-.4.5-.3.4-.4.1v.7l-.4.2-.2.8-.5.3v.3l-.2.3-.2.2-.5.7v.2l-.3.3-.6.3.1.8-.1.1-.2.1-.4.6-.2.4-.1.3v.2h-.1l-.6.4v.5l-.3.5-.3.2-.2.6-.3.4-.1.5-.2.4v.2l-.2.1-.1.3-.3.4v.2l-.2.1v.4l-.2.1-.3.7v.2l-.3.2v.4l-.3.3v.4l-.2.3-.1.4-.1.1-.2.6v.1l-.3.4-.2.7v.7l-.2.4-.2.6-.1.2v.7l-.3.8v.2l-.2.4.2.4v1l.1.4.1.8.2.3v.4l.3.7.2.6.4.6h.1v.2l.4.5.2.4.5.3v.3l1 .5h.1l.1.1h.2l.1.4.5.1.4.3h.6l.5.5h1l.4.2.4-.1h2.1l.3-.2h.5l.7-.4.5-.1.3-.3.7-.2.2-.3h.3l.1-.2h.1l.6-.5.5-.1.5-.5.1-.2.3-.2.5-.1.1-.4.5-.1v-.4l.4-.1.1-.3.5-.2.1-.4.3-.2.3-.3.2-.3.6-.4v-.3l.1-.1h.3l.5-.8v-.1l.4-.5.2-.3.4-.2.1-.2.7-.6v-.1h.1l.2-.6.2-.1.2-.3.2-.2.4-.5.1-.3.1-.1.3-.2.2-.3.4-.2v-.3l.4-.2v-.6l.5-.4.6-.3v-.6l.4-.2v-.4l.4-.3.2-.3v-.1l.6-.5v-.4l.3-.2v-.3h.1l.2-.3.7-.7v-.2l.4-.2v-.6h.1l.1-.3.5-.3.2-.5.2-.1.2-.4.4-.4v-.2l.6-.2v-.6l.1-.1v-.2h.1l.3-.6.2-.2.2-.6.4-.4.6-.3v-.4l.3-.1v-.7l.3-.2v-.3h.1l.2-.5.4-.2.2-.9.1-.2.3-.3.2-.4.6-.7v-.7l.4-.3v-.3l.2-.2.3-.5h.2l.2-1 .2-.3.4-.2-.1-.7.1-.2.4-.3-.1-.7.3-.4v-.9l.5-.5-.2-.5v-.6l.1-.4.1-.2v-.8l.1-.2-.2-.7v-.4l-.2-.4v-.4l-.5-.6v-.5l-.7-.4v-.2l-.7-.5-.4-.2-.4-.3-.5-.1h-.5l-.7-.5-.5.4h-.6l-.4.2h-.8l-.5.5h-.6l-.6.5-.2.2-.2.1-.2.3-.5.3-.3.3-.3.2-.2.3h-.4l-.3.4-.4.2-.1.2h-.2l-.2.3-.5.3v.3l-.3.1-.1.3-.2.1-.1.3-.3.1-.3.5-.1.1-.3.2-.5.6v.1l-.3.2-.2.3-.2.1-.3.3-.4.4v.3l-.3.2-.3.6h-.1l-.5.4-.3.4-.3.5h-.1l-.2.4-.3.3v.1l-.5.2v.3l-.3.1v.5l-.4.4v.2l-.4.3-.4.2v.8l-.3.2-.5.1v.6h-.6v.8l-.3.4-.1.2-.5.2v.7h-.1l-.4.5-.1.2-.3.3-.1.5-.2.1-.3.5-.1.3-.2.1-.4.6-.3.4-.3.4-.2.6-.2.3-.4.3v.3l-.6.9v.1l-.5.4v.4l-.6.6v.1l-.4.3v.2l-.3.1v.6a1.1 1.1 0 0 0 1.6 1.6l.6-.5v-.2l.4-.1v-.5l.2-.5.2-.2.4-.5v-.2l.5-.5v-.4l.2-.2.3-.3v-.3l.3-.3.4-.4.1-.6.1-.1.5-.3.1-.5.3-.3.4-.7.2-.3.3-.6.1-.1.2-.4.4-.2.2-.5h.3l.2-.9.6-.5h.2l.2-.7h.2l.2-.6.2-.2.2-.4.3-.2.2-.5v-.1l.2-.3.6-.3v-.2l.4-.2v-.4h.2l.1-.6h.1l.1-.2.4-.3.2-.6.4-.3.4-.4.2-.4.2-.1.5-.7v-.2l.2-.1.2-.2.1-.2.8-.4.1-.5.4-.3.4-.4v-.1l.2-.1.2-.3.3-.1.1-.4.4-.1v-.3l.2-.3.4-.1.2-.3.1-.1.1-.1h.2l.4-.4.2-.2h.2l.4-.5.1-.1.5-.3.2-.2.2-.2.2-.2h.5l.4-.3h.2l.4-.2h.3l.1-.1h1.2l.2.1.4.3.1.3.4.1v.3l.4.3v.2l.3.4v.1l-.3.5.2.4-.2.3.2.6v.1l-.3.5.1.2v.6l-.4.4v.8l-.4.3v.8l-.4.1v.7l-.1.2v.2l-.5.3v.7l-.2.2v.2l-.2.1-.2.6-.6.3.1.6-.1.3v.1l-.7.8-.1.3-.2.1-.3.7-.4.3v.4l-.2.2-.5.8h-.3v.7l-.3.4-.3.6-.1.1-.5.3-.1.5-.3.2v.2l-.5.7v.2l-.1.1-.4.2-.2.6-.4.5-.2.3-.3.3v.1l-.6.7v.2l-.1.2-.2.2-.4.3v.3l-.7.7v.4l-.2.2-.6.6v.1l-.6.8-.3.4-.3.4-.4.5v.1l-.2.1v.3h-.2l-.1.3-.4.1-.2.6-.2.2v.2l-.3.2-.2.2-.3.2-.2.5-.7.2v.4l-.3.1-.1.5h-.1l-.3.5-.1.2-.5.4v.2h-.3l-.3.5-.5.3v.4l-.2.2-.2.2-.2.2-.7.2v.4h-.1l-.2.3-.8.4v.2h-.2v.3h-.2l-.3.5-.3.2-.1.2-.8.1-.2.4h-.4l-.3.5h-.2l-.2.3h-.4l-.1.2h-.1l-.6.2-.3.2h-.7l-.2.2h-1.4l-.3-.2-.4.1h-.2l-.5-.3-.6-.1h-.2l-.1-.3-.4-.2-.4-.3-.2-.3-.5-.2v-.2l-.5-.3v-.4l-.4-.2v-.6l-.3-.3-.2-.7v-.5l-.2-.5v-.2l.2-.7-.1-.2.1-.2-.1-.3.2-.4v-.4l.2-.3v-1l.3-.5v-.6l.4-.7v-.4l.2-.3v-.2l.6-.5v-.7l.1-.1.4-.7v-.3l.2-.2v-.2l.3-.3v-.4l.2-.3.3-.4.1-.4.3-.6.4-.6.2-.2.2-.6.4-.3v-.3l.3-.4.2-.4.1-.3.1-.2v-.1l.4-.2.2-.4.2-.2.3-.6h.2v-.6l.7-.5v-.6l.7-.4v-.4l.4-.5v-.4h.1l.5-.5.5-.2v-.8l.3-.2.3-.6v-.1l.1-.1.3-.3.2-.4.2-.3.3-.2v-.4l.3-.3.5-.6.1-.1.2-.5v-.2h.1l.4-.3.1-.3.4-.3v-.1l.3-.1v-.6h.1l.1-.3.3-.2.1-.3.1-.2.4-.4v-.2l.4-.5.2-.1.4-.6v-.2l.4-.2v-.4l.2-.3.2-.3.1-.2.5-.4.1-.5.7-.4v-.3l.5-.4v-.6l.6-.5.3-.1.1-.7.3-.3.2-.3.4-.2v-.2l.2-.1.4-.8v-.1h.1l.5-.2.1-.6.1-.2.2-.2.3-.3v-.2h.1l.2-.3h.2l.6-.9v-.2l.1-.2.3-.3.5-.4.3-.6.6-.1v-.7l.4-.4v-.2l.7-.2v-.4l.5-.4v-.2l.2-.2.1-.2.4-.1v-.4l.3-.2.2-.2.4-.4h.2l.6-.5.2-.2h.1l.7-.5.2-.2.4-.1.5-.3.6-.1.2-.2h.2l.3-.2h.2l.2-.1h.1l.6-.1.1-.1h.9l.3.3.6-.1h.6l.5.3h.5l.3.3h.5l.2.3.5.2.4.1h.2l.1.1a1.1 1.1 0 0 0 1.9-1.3z" fill="#0077c8"/><path d="m380.5 283.9h-.1.2zm34.6-6.3.4-.3-.6.3-.1.2zm-262.5 50.1.3-.3.7-.2.7-.1.6-.6.7.1.7-.1.7-.2.7-.3.6-.4.7-.3h.7l.6-.4h.8l.7-.3.5-.5.6-.4.7-.3.6-.2.7-.3.6-.4h.8l.6-.5.5-.5.7-.2.4-.8.5-.4.6-.4.8-.2.5-.5.6-.3.4-.7.4-.7.6-.3.7-.3.2-.9.5-.4.4-.6.8-.3.2-.7.4-.6.6-.5.3-.6.4-.6.4-.6.4-.6.2-.7.5-.6.3-.6.3-.7.6-.5.4-.6.1-.7.2-.7.4-.6.4-.6.3-.7.1-.7.4-.6.2-.7-.1-.8.5-.6-.2-.8.4-.6v-.7l.6-.6-.2-.8.2-.7.3-.7v-.7l.2-.7.3-.7v-.7l.4-.7v-.7l-.2-.7.2-.7-.2-.8.5-.6v-.7l-.2-.8.3-.7.4-.6.6-.2.7-.3.8.2.7-.2.7-.1h.7l.7-.1.7.3.7-.2.7.1h.7l.8-.2.7.4.7-.2.7.1h.7l.7-.2h.7l.7.3.7-.4.8.2.7.1.7-.2.7.2.7-.1.7.1.7-.1.7-.2h.7l.8.1h.7l.7-.2.7.3h1.4l.7.2.7-.5.8.4.7-.1h.7l.7.1.7-.3h.7l.7.3h.7l.8-.2h.7l.7-.2.7.5.7-.3.7-.2.7.3.7.1h1.5l.7-.2.7.1h.7l.7-.2.7-.1.7.2.7-.1.8.2h2.8l.7-.3.7.5h.7l.8-.4.7.4.7-.5.7.5.7-.5.7.5.7-.4h1.5l.7.4h1.4l.7-.2.7.2h.7l.7-.1h.8l.7-.3.7.4.7-.4.7.3.7.1.7-.3.7.2.8-.3.7.4.7-.2h.7l.7-.1h.7l.7.2h.8l.7-.1h1.4l.7.2.7-.2.7-.1h1.5l.7.4.7-.2.7-.2.7.1.7.1.7.1.7-.4.8.1.7-.1h1.4l.7.3h.7l.7-.2h1.5l.7.3.7-.1.7-.1.7.2h1.4l.8.1.7-.4.7.2h.7l.7.2h.7l.7-.5.7.2.8.2h1.4l.7-.4h.7l.7.3.7.2.7-.2.8-.3h2.1l.7.3.7-.2h2.2l.7.4.7-.2.7-.2h1.4l.7.2.8.1.7-.1.7.1.7-.2.7.2h.7l.7-.3.7.2h.7l.8-.3.7.4h.7l.7-.4.7.1.7-.1.7.4.7-.3h.7l.8-.1.7.4.7-.3h.7l.7.1.7-.1.7-.1.7.3h.8l.7-.2.7.2.7-.3h.7l.7.3.7-.2.7.2h2.2l.7-.1.7.1.7-.4.7.2.7.1.7-.1.7.2.7-.4.8.2.7-.2h.7l.7.3.7-.2.7.2h.7l.7-.3.8.4h.7l.7-.4.7.1.7-.2.7.2.7-.2h.7l.7.2.8-.2.7.1.7.1.7-.2.7.2h1.4l.7-.1.7-.2.8.2h.7l.7-.1h2.8l.7.2.7-.1.7-.2.8-.1.7.1.7.1.7-.3.7.2h1.4l.7.2.7-.3.7-.2.8.2.7-.2.7.4.7-.4.7.2.7-.2.7.4.7-.3.7-.1.8.3h1.4l.7-.3h.7l.7.2h.7l.6-.1h-.2l-.7-.3-.6-.6h-.7l-.7-.1-.7-.2-.5-.7h-.7l-.6-.5-.6-.3-.6-.5-.6-.3-.7-.3-.5-.5-.6-.5-.1-.8-.6-.4-.6-.4-.5-.5-.2-.8-.5-.5-.6-.4-.3-.6-.3-.7-.6-.5-.4-.6-.4-.6v-.7l-.7-.5.2-.9-.4-.5-.4-.7v-.7l-.9-.4v-1.5l-.5-.6-.2-.7.3-.8-.4-.7-.2-.6-.1-.7.1-.8v-.7l.1-.7-.4-.7v-1.4l-.3-.7v-.7l-.2-.7v-1.5l-.4-.6v-.8l.1-.7-.1-.7v-.7l-.3-.7v-.7l.1-.7-.3-.7.3-.7v-.8l-.4-.6v-.8l-.1-.7-.2-.7.2-.7-.3-.7.2-.7-.2-.7.1-.7v-.7l-.3-.7v-.7l.2-.8v-.7l-.6-.6.3-.8-.2-.7-.2-.7.2-.7v-.7l-.1-.7.1-.8-.4-.6.1-.8-.3-.7v-.7l.3-.7-.2-.7.1-.7-.5-.7v-1.4l.3-.8-.4-.7.1-.7-.3-.7v-.7l.3-.7-.4-.7v-1.4l-.1-.7v-1.5l.1-.7-.1-.7v-.7l-.4-.7.3-.7-.3-.7.1-.8.2-.7-.6-.6.2-.8v-.7l.2-.7-.1-.7-.3-.7-.3-.7.5-.8-.3-.7-.1-.7.2-.7-.5-.7.2-.7v-.7l.2-.7-.1-.8-.5-.6v-1.5l.2-.7-.4-.7v-.7l.3-.7-.3-.7.2-.8-.1-.7v-.7l-.3-.7v-.7l-.1-.7.2-.7-.4-.7v-.7l-.1-.7.1-.8.1-.7v-1.4l-.3-.7-.1-.7.3-.7-.2-.7v-.8l.1-.7-.3-.7.3-.7-.4-.7v-.7l.3-.7-.5-.7.2-.7v-1.6l-.5-.7v-.7l.1-.7v-.7l.3-.7-.4-.7.1-.7v-1.5l-.4-.7.1-.7-.3-.7.5-.7-.3-.7v-.7l-.2-.7-.1-.7.3-.8-.4-.7.3-.7v-.7l-.1-.7v-.7l-.4-.7v-.7l.3-.8-.2-.7-.2-.7.3-.7-.3-.7.3-.7-.3-.7-.2-.7v-1.4l-.2-.7v-1.5l.2-.7-.3-.7.4-.7-.2-.7-.1-.2-.2-.5v-1.4l-.1-.7.1-.8-.1-.7.2-.7v-1.2l-.5-.7.2-.7-.1-.7-.3-.7.4-.7v-1.5l-.6-.7.4-.7v-.7l-.4-.7-.1-.7.4-.7-.5-.7.5-.8-.2-.7-.2-.7v-.7l-.3-.7v-1.5l.2-.7-.1-.7-.1-.7.4-.8-.5-.6.3-.8v-.7l-.5-.7.4-.7-.3-.7.1-.7.1-.7v-.7l-.5-.7.1-.7.3-.8-.3-.7.2-.7v-1.4l-.3-.7-.4-.7.5-.7-.2-.7v-.7l.1-.8v-2.1l-.3-.7.1-.7-.1-.5v-.2l-.4-.7.4-.7-.5-.7.5-.8-.3-.7-.1-.7-.2-.7v-1.3l.2-.7v-.7l-.3-.7.2-.7v-1.5l-.3-.7v-.7l.1-.7v-.7l.1-.7v-1.4l-.4-.7.2-.8-.3-.7-.1-.7v-.7l.3-.7-.3-.7v-.8l-.3-.7v-.7l.2-.7.2-.8-.3-.7v-.7l-.1-.7-.1-.7v-.7l-.2-.7.2-.7-.5-.6-.2-.7-.7-.3-.7-.2h-.7l-.7-.2h-.7l-.7.3-.8-.2-.7-.1-.7.4-.1-.1-.6-.2-.7.3h-.7l-.7-.4-.7.4-.8-.4-.7.4-.7-.3-.7.3-.7-.2-.7-.2-.7.2-.7.3-.5-.2-.2-.1-.7.1h-.8l-.7.2-.7-.3-.7.2-.7-.1-.7-.2-.7.5h-.7l-.7-.2h-1.5l-.7.3-.7-.2h-.7l-.7.2-.7-.3-.7.5-.7-.3-.8.1-.7-.3-.7.3-.7.2-.7-.4-.7.3-.7-.4-.7.1-.7.1h-.8l-.7.4-.7-.2-.7.2-.7-.1-.7.2-.7-.1-.7.1-.7-.3h-.7l-.8-.2-.7.3-.7.2-.7-.1-.7.2-.7-.5-.7.2h-.7l-.7.3-.7-.5-.7.5h-1.5l-.7-.4-.7.3-.7.1-.7-.2h-.7l-.7.2h-1.5l-.7-.1-.7.4-.7-.4h-1.4l-.7.2-.7.1-.7-.2h-.8l-.7.4h-.7l-.7-.5-.7.5-.7-.2h-.7l-.7-.2-.7.3h-.7l-.8-.4-.7.2-.7-.1-.7.4h-1.4l-.7-.2-.7.2-.7-.2-.7.4-.8-.5-.7.1-.7.2-.7.3-.7-.1-.7-.2-.7.1-.7.2-.7-.5h-.8l-.7.4-.7-.3-.7.1-.7.3h-1.4l-.7-.4-.7.4-.7-.3-.7.5-.8-.5h-.7l-.7.2h-.7l-.7.2-.7-.1h-1.5l-.7-.2-.8.3-.7.1-.7-.2-.7.1-.7.2-.7-.2-.7-.2-.7.3-.7-.3h-.7l-.7.5-.8-.3h-.7l-.7.1h-.7l-.7-.1-.7.4-.7-.5-.7.1-.7.3-.8-.3-.7.5-.7-.2-.7-.2h-.7l-.7.2-.7-.3-.7.5-.7-.4-.7.3-.7-.1h-2.2l-.7.3h-.7l-.7-.3-.7.3-.7-.4-.7.5-.7-.2h-.7l-.8.1-.7-.1h-1.4l-.7.3h-.7l-.7-.5-.7.2-.7.2-.7.1-.8-.2h-1.4l-.7.2-.7.2h-1.4l-.7-.4-.7.4-.7-.4-.7.3-.8-.1-.7.3-.7-.4-.7.4-.7-.2h-.7l-.7.3-.7-.6-.7.4-.7.3-.7-.3-.8.2-.7-.2h-.7l-.7.2-.7-.3h-.7l-.7.4h-.7l-.7-.2-.7-.1-.7.2-.8-.2h-.7l-.7.2h-.7l-.7.3-.7-.3h-.7l-.7.2-.7-.1-.7-.2-.8.2-.7-.3-.7.6-.7-.5-.7.3-.7.1-.7-.3h-.7l-.7-.1-.7.5-.7-.5-.7.5-.8-.4-.7.3-.7-.2-.7.3-.7-.1h-.7l-.7.2-.7.1h-.7l-.7-.3-.7.1-.8-.2h-.7l-.7.5h-.7l-.7-.5-.7.2-.7.2h-.7l-.7-.3-.7.1h-.7l-.7.4-.8-.3-.7.4-.7-.3-.7.1h-.7l-.7.1-.7-.4h-.7l-.7.4-.7.2-.7-.4-.8.2-.7-.4-.7.4h-1.4l-.7.3-.7-.2-.7-.1-.7.3-.7-.2h-3.5l-.7-.2h-.7l-.7.1-.7.2-.7.2-.7-.4-.8.1h-.7l-.7.4-.7-.2-.7-.3h-.7l-.7.3-.7.1-.7.2-.7-.2-.8-.2h-1.4l-.7.2-.7.3-.7-.5-.7.2-.7-.2-.7.5-.7-.4-.7.2-.8-.2-.7.3-.6.3-.4.6-.4.5-.5.6v.7l.2.7.1.7.5.6v1.5l.6.5-.2.8.3.7.6.6-.3.8.2.7.5.6-.1.7.5.6.2.7-.1.8.2.6.2.7.2.7.4.6v.8l.4.6-.1.8.2.6.2.7.1.7.5.6-.3.8.4.7-.1.7.6.6-.3.8.1.7.3.7v.7l.8.6.1.7v.7l.2.7-.1.7.5.7-.3.8.2.6.4.7v.7l.2.7v.7l.3.7.2.7-.2.7.4.7.2.7.3.6v.8l.3.6v2.2l.5.6-.2.8.3.7.2.6-.2.8.2.7.3.7.1.7v1.4l.2.7.3.7.2.7-.1.7v1.4l.7.6-.2.8v1.4l.5.7-.3.7.3.7.3.7v.7l-.2.8v.7l.4.6.2.7.2.7v1.4l-.2.8.6.6-.3.8v.7l.1.7v.7l.4.7.2.7-.2.7.3.7.1.7v.7l-.4.7.4.7v.7l-.2.7.4.7v.8l-.3.7.2.7-.2.7.2.7v5.7l.2.7.3.7v1.4l-.4.7.4.7.1.7-.2.8v1.4l.2.7-.4.7v.7l.4.7-.5.7.3.7.2.8-.2.7-.2.7v.7l.4.7-.1.7-.3.7v.7l.3.7-.2.8.2.7-.6.7.2.7v.7l.1.7v.7l-.3.7.5.7-.4.7.3.8-.1.7-.3.7.2.7v.7l-.3.7-.2.7v1.4l.2.7v.7l-.2.7v.8l.3.7-.6.7.1.7.2.7-.3.7.2.7-.2.7.3.7-.6.7.3.8v.7l-.4.7-.1.7.2.7.3.7-.4.7-.3.7.5.7-.2.7-.1.7-.4.7.1.7-.1.7.2.8-.4.6.3.8-.3.7.2.7-.3.7v1.4l-.3.7.2.7.2.7-.6.7.1.7.1.7-.3.7.3.8-.2.7-.4.6.2.8.1.7-.4.7.2.7-.3.7-.2.7.3.7-.3.7.2.7-.4.7.3.7v1.5l-.3.6v2.2l-.3.7-.2.7.2.7-.4.7.2.7-.3.7.2.7v.7l-.4.7.2.7-.2.7-.3.7v2.8l.2.8-.2.7v.7l-.5.6.2.8-.3.7-.2.6v.8l.2.3.2.4-.3.7.2.7-.1.5v.2l-.5.7.2.7-.3.7.2.7-.5.7-.1.7.3.8-.3.6v.7l-.3.7.4.8-.5.6.3.8v.7l-.4.7.1.7.1.7-.3.7-.2.7.4.7-.3.7-.2.7-.1.7.3.8-.4.6-.1.7.4.8-.2.7-.2.7.1.7-.1.7v.7l.1.7v.7l-.1.7-.5.7.3.7.1.8v.7l-.3.7v.7l-.3.7.5.7-.4.7.4.7v.7l-.3.7.3.7v.7l-.3.8.2.7v1.4l.3.7-.1.7v.7l.3.7.3.6v.8l.4.6-.1.8.5.6.1.7v.7l.4.6v.8l.6.5v.8l.4.6v.8l.3.6v.8l.6.5v1.5l.5.6.2.6.6.5.2.7.1.8.3.6.4.6.4.6.3.6.4.6.3.7v.7l.8.5.5.5.3.6v.8l.4.6.6.5.6.4.4.6.4.6.3.7.6.4.4.6.7.3.6.4.2.8.6.4.8.2.4.6.7.3.4.7.6.4.5.4h.8l.7.3.5.6.5.5.9-.1.5.5.6.3.7.3.8-.1.6.4h.7l.7.3.8-.2.6.3.7.1.7.3h.7l.6.1-.3-.1-.4-.4zm152-231.8a2 2 0 0 1 2.9.7l.1.2.3.1.3.6.6.7v.1l.4.6.2.2.4.3.1.3.4.2v.3l.5.7.1.1.2.1.4.7.4.3.3.6.4.5.2.1.1.3.2.1.2.4.4-.3.3-.5h.2l.2-.3.1-.2v-.1l.7-.7.2-.2v-.1l.4-.5.3-.3.3-.2.4-.7.2-.2.4-.4.3-.4.2-.4h.1l.2-.4.3-.2.2-.5h.2l1-1.3.2-.2.1-.2.2-.4.4-.2v-.2l.2-.5.2-.2.1-.2.3-.2.3-.4.4-.4v-.4l.6-.3.1-.4.3-.2v-.2l.5-.4.4-.6.2-.2.4-.4.5-.7v-.2l.4-.3.1-.2.5-.5v-.1l.3-.3.4-.7h.2v-.2l.9-.8.2-.8.4-.2.5-.6.1-.1.1-.2.6-.6v-.1l.4-.5.2-.1v-.1l1-1.2.2-.2.2-.4.3-.2.1-.2.3-.4.4-.4.3-.4.2-.1.6-.7.2-.2.2-.2.2-.3.3-.4.2-.2.3-.4h.1l.2-.3.3-.2.3-.3.2-.3.7-.3a2 2 0 0 1 2 3.6l-.1.1-.5.5-.2.5-.4.1-.1.2-.3.3-.3.4-.2.1-.4.5-.2.4-.3.2-.8.9-.2.3-.4.5-.2.1v.2l-.2.1-.2.6-.5.2v.1l-.2.2-.2.4-.5.5-.5.7-.4.2v.3l-.4.5-.2.2-.5.5v.1l-.1.2-.4.4-.4.6-.2.2-.1.2-.6.6-.2.1-.1.2v.1l-.4.5v.1l-.7.7-.4.5-.1.4-.4.3-.3.4-.3.3-.2.3-.1.6-.7.3-.2.3-.2.5-.2.1v.2l-.2.1-.3.4-.3.4-.3.3-.4.4-.2.4-.4.3v.3l-.4.3-.3.6-.3.1-.2.2-.2.4v.1l-.3.4-.3.3-.2.4-.4.2-.4.6-.3.4-.3.2v.2l-.2.1-.2.6h-.2v.4l-.8.4v.1l-.3.6-.6.3-.1.2-.7.8v.1l-.8.7-.3.4-1 .5-1.8-.1-.3-.5-.7-.3v-.5l-.1-.1h-.2l-.4-.7-.3-.3v-.3h-.2l-.4-.5-.2-.1-.1-.4h-.1l-.4-.6-.3-.4-.3-.3-.3-.2-.1-.5-.3-.3-.1-.2-.5-.5v-.2l-.2-.2-.4-.5-.2-.2-.3-.4v-.1l-.6-.5v-.3l-.1-.1-.2-.1-.4-.6-.1-.2-.2-.3a2 2 0 0 1 .6-2.9zm-.6 39a2 2 0 0 1 3-.5l.4.4.4.6.3.2.2.4.3.3.1.3.2.2.3.2.2.4.2.3v.2l.2.2.6.4.1.5.2.3.6.4v.3l.3.1h.1l.3.7.6.8.2.2.2.4.2.2.2.2.2-.2.2-.4.4-.3.2-.3.2-.1.2-.6.5-.3.2-.3.3-.3.2-.3.4-.4.1-.1v-.2l1.3-1.6h.1l.2-.2.2-.3.2-.2.4-.5.3-.4.1-.6.5-.2.4-.4.3-.5.3-.3.2-.1v-.1l.4-.6.3-.3.3-.6.3-.2.1-.2h.1v-.2l.5-.5.4-.5.1-.1.2-.3.4-.3v-.2l.3-.3.2-.5.4-.2.1-.7.5-.2v-.1l.3-.4.2-.2.2-.1.4-.5 1-1.3.3-.4.1-.2.3-.3.1-.2.4-.4.4-.4.3-.4.2-.6.5-.2v-.2l.3-.2.2-.5.3-.2.1-.2.2-.2.8-.9.1-.6.5-.2v-.3l.5-.2v-.1h.1v-.2l.3-.2.3-.6h.3l.1-.2.2-.3.3-.2.1-.3.4-.3.3-.2.4-.7.8-.7h.2a2 2 0 0 1 2.6 3.1v.2l-.7.5v.2l-.5.4-.3.5-.4.3h-.1l-.1.2-.2.7-.5.2-.1.1-.3.3-.3.5-.2.1v.3l-.7.5-.2.6-.6.4-.4.6-.3.2-.1.1v.2l-.3.2-.2.5h-.2l-.3.3v.1l-.2.3-.4.3v.1l-.3.3-.3.5-.4.6-.3.2-.3.3-.5.7-.2.3-.2.4-.3.2v.2l-.3.1v.6h-.3l-.5.4-.2.3v.1l-.3.3v.1l-.4.5-.5.5-.2.4-.2.1v.2l-.2.1v.2l-.6.5-.2.6-.3.1-.3.4-.2.1v.2l-.7.7-.2.3-.3.3-.1.2-.3.4v.5l-.6.3-.2.2-.5.5-.1.2-.1.1v.1l-.1.1-.1.1-.5.7h-.2l-.2.5-.1.1v.2l-.5.4-.2.3-.3.2-.1.3-.4.3-.1.3-.6.6-.1.3-.4.3-.2.3v.2l-.5.4-.6.6-.2.3-.4.4-.3.3v.1l-.4.2-1.1 1-1.5-.4-.8-.5-.2-.2-.3-.2-.2-.3v-.1l-.2-.3-.4-.3-.2-.1-.1-.3-.3-.5-.2-.2-.3-.4-.2-.3-.3-.4-.5-.2-.2-.6-.3-.5-.3-.4-.2-.3-.4-.3v-.1l-.1-.1-.5-.8-.1-.2-.3-.3-.1-.1-.5-.7-.4-.6-.2-.1-.2-.4a2 2 0 0 1 -.4-2.8zm-9 77.2c0 .7-.7 1.2-1.4 1.2h-4.9l-.8.1h-9.9l-.7.1h-4.3l-2.1.1h-7.9l-1.4.1h-2.2a1.3 1.3 0 1 1 0-2.6h11.5l.6-.1h5.7l.7-.1h7.9l.7-.1h5l1.4-.1h.8c.7 0 1.3.7 1.2 1.4zm-37.2-35.8c-.1-.7.4-1.3 1.1-1.4h3.7l.7-.1h5.8l2-.1h5.8l2.2-.1h7.8l.7-.1h5.7a1.3 1.3 0 1 1 .2 2.5h-3.7l-.7.1h-10l-2.2.1h-5.7l-.7.1h-5l-1.5.1h-4.8a1.3 1.3 0 0 1 -1.4-1zm35.6-38.1a1.3 1.3 0 1 1 0 2.6h-9.4l-1.5.1h-11.4l-.7.1h-2.8l-2.2.1h-6.3a1.3 1.3 0 0 1 -.1-2.5h3.6l.7-.1h8.6l.7-.1h7.1l.8-.1h7.8l.7-.1zm-36.5-35.9h5.8l.8-.1h7.1l2.2-.1h5.7l.7-.1h6.4l.8-.1h5a1.3 1.3 0 0 1 0 2.6h-9.4l-1.5.1h-7.8l-2.2.1h-4.1l-.8.1h-7.8l-.6.1h-.2a1.3 1.3 0 0 1 0-2.6zm-11 36.3c.7 0 1.3.5 1.3 1.2s-.5 1.3-1.2 1.4h-.7l-.7.1h-7.8l-.8.1h-5.6l-.8.2-.9-.2h-2.6l-.8.1h-5.6l-2.2.2h-.9l-.6-.1h-2.7l-.7.1h-7.9l-.7.1h-7.7l-.8.2h-.9l-.6-.1h-4.8l-.8.1h-8.4l-.8.1h-4.3l-.7.1h-1.5l-.7-.1h-.5l-.8.1h-2l-.9.1h-.8l-.6-.1h-.6l-.8.1h-4.2l-.8.1h-1.4l-.8-.1h-1.2l-.7.1h-.2a1.3 1.3 0 0 1 -.1-2.6h.8l.7-.1h2.2l.7.1h.6l1.5-.1h5.7l1.4-.2.8.2h.5l.8-.2h.9l.6.1h2.7l.7-.1h10.6l.8-.2.8.1h.7l.8-.1h11.1l.7-.2h1l.7.1h2l1.4-.1h5.6l.7-.1h4.3l2.2-.1h3.1l.5.1h2l.8-.1h2l.9-.1.6.1.5-.1h7.9l.8-.1h6.3zm.3 38.8-.9.2h-1.7l-.5-.1h-1.4l-.7.2-.8-.1h-2l-.8.1h-9.9l-.7.1h-4.3l-.8.1-.7-.1h-2.7l-.8.2h-.9l-.5-.1h-5.7l-.7.1h-3.5l-.8.1-.8-.1-2 .1h-9.8l-.8.2h-1.5l-1.3-.1-.8.1h-2.3l-.7-.1h-.4l-.8.2-.9-.1h-4.1l-.7.1h-2.9l-.8.1-.7-.1h-.5l-.7.1h-8.6l-.7.1h-5.7l-.8.1h-1.4a1.3 1.3 0 0 1 -.2-2.5l1-.2.7.1h1.3l1.5-.1h7.7l.7-.1h4.2l.8-.1h1l.6.1h1.2l.7-.2h1l.5.1h2.1l.7-.1h7.1l.7-.1h5.7l.8-.1h2.9l.7.1h.5l.7-.2h1l.6.2h.6l2.3-.2.6.1h.6l.9-.1h4.9l.7-.1h7.7l.9-.1h5.5l.8-.1h9.9l.7-.1h7.1l.5-.1a1.3 1.3 0 0 1 .6 2.5zm-92.4-73.9h.6l1.4-.1h9.9l.8-.1h.8l.7.1h2l.7-.1h2l.9-.1h8.5l.7-.1h6.3l.9-.1h2.7l.8-.1.8.2h.5l.8-.2.8.1h2l.8-.1h7l.7-.1h2.9l.6-.1h9.3l.8-.1h7l.8-.1h11.3l1.4-.1h1.4l.6-.1h1a1.3 1.3 0 0 1 0 2.6h-.7l-.8.2-.8-.2h-.6l-1.5.2h-11.9l-.8.1h-2.8l-.8.1-.7-.1h-3.6l-.8.1h-7.6l-.8.1h-2.8l-.7.1-.9-.1h-1.2l-.7.2-.8-.1h-4.1l-.8.1h-8.5l-.7.1h-7.1l-.8.1h-9.7l-.8.2h-3l-.6-.1h-1.4l-1.5.1h-7.7l-1.4.1h-.8a1.3 1.3 0 1 1 0-2.6zm2.3 108.8h5.5l.8-.1.8.1h2.7l.8-.1h7l.8-.1h7l.7-.2 1 .1.6.1h2.6l.8-.2h.8l.7.1h.6l.8-.1h7.7l.7-.2.8.1h2.1l.6-.1h1.7l.7.1h1.2l.9-.1h4.2l.6-.1h7.1l.8-.1.8.1h2.7l.7-.1h1.3l.9-.1.8.1h.5l.7-.1h7.1l.9-.1.8.1h.5l.7-.1h4.9l.8-.1h3a1.3 1.3 0 0 1 -.2 2.7l-.6-.1h-2.1l-.6.1h-10l-.8.2-.8-.1h-3.3l-.8.1h-8.6l-.7.1h-6.3l-.8.2-.8-.2h-1.9l-1 .2-.7-.1h-.5l-.8.1h-1.5l-1.2-.1-.8.1h-5l-.7.1h-6.3l-.8.1-.8-.1h-1.3l-.7.1h-3.5l-.7.1h-11.4l-.8.1h-7.7l-.8.2-.7-.1h-4.3a1.3 1.3 0 1 1 0-2.6z" fill="#b5e0fe"/><path d="m414.8 277.6v-.2l-.5-.4-.4-.7-.8.1-.6.4-.7.2-.7.2-.6.4-.5.6h-.8l-.7.1-.6.4-.7.2-.6.3-.6.5h-1.5l-.6.6-.7.1-.7.2-.7.2h-.7l-.6.5-.7.2-.7.2-.7.1-.6.3h-.8l-.6.3h-1.5l-.7.2-.7.2h-1.4l-.7.5-.7-.3-.7.4h-1.4l-.7.2h-.7l-.8-.1h-1.4l-.7.4-.7-.3h-.7l-.7.3-.7-.2-.7.2h-.8l-.7-.1-.7.1h-.1l-.6.2h-.7l-.7-.3h-.7l-.7.4h-1.4l-.8-.3h-.7l-.7.4-.7-.4-.7.2-.7-.2-.7.4-.7-.4-.7.2-.8-.2-.7.2-.7.3-.7-.2h-1.4l-.7-.2-.7.3h-.7l-.7-.2h-.8l-.7.3-.7.1-.7-.2h-3.5l-.8.1-.7-.2-.7.2-.7.1h-1.4l-.7-.2-.7.2h-.7l-.8-.2-.7.2-.7-.1-.7-.1-.7.2-.7-.2-.7.2h-.7l-.7.3h-.7l-.8-.4-.7.3h-.7l-.7-.2-.7.2-.7-.3h-.7l-.7.2-.8-.2-.7.4-.7-.2-.7.1-.7-.1-.7-.2-.7.4-.7-.1h-.7l-.8.1h-1.4l-.7-.2-.7.2-.7-.3h-.7l-.7.3-.7-.2-.8.1h-.7l-.7-.2h-.7l-.7.2-.7-.1h-.7l-.7.3-.7-.4h-1.5l-.7.4-.7-.4-.7.1-.7-.1-.7.3h-.7l-.7-.3-.8.4-.7-.1-.7-.2-.7.3h-.7l-.7-.2-.7.2-.7-.1-.8.1h-.7l-.7-.2h-2.1l-.7.3-.7-.4h-2.2l-.7.2-.7-.2-.7-.1h-1.4l-.8.3-.7.2-.7-.2-.7-.2h-.7l-.7.4-.7-.2h-.7l-.8-.1-.7-.2-.7.5h-.7l-.7-.2h-.7l-.7-.2-.7.4h-.8l-.7-.1h-.7l-.7-.2h-.7l-.7.2-.7-.4h-1.5l-.7.3h-.7l-.7-.3h-1.4l-.7.1h-.8l-.7.3h-.7l-.7-.2h-1.4l-.7.3-.7-.5-.8.1h-1.3l-.7.3-.7-.2h-2.2l-.7.1-.7-.1-.7-.1h-1.4l-.7.3-.7-.4-.8.3-.7-.2-.7.3-.7-.1-.7-.3-.7.4-.7-.4-.7.3h-1.5l-.7.1-.7-.2-.7.2h-1.4l-.7-.3h-.8l-.7-.1-.7.4-.7-.5-.7.5-.7-.5-.7.5-.7-.4-.8.3h-.7l-.7-.4-.7.2-.7.1h-2.2l-.8-.2-.7.1-.7-.2h-.7l-.7.3h-2.1l-.8.2h-.7l-.7-.2-.7-.3-.7.2-.7.3-.7-.5-.7.1h-.7l-.8.2h-.7l-.7-.2h-.7l-.7.3h-.7l-.7-.1h-.7l-.8-.3-.7.5-.7-.1-.7-.2-.7.1-.7-.3-.7.2h-.7l-.8-.2-.7.1-.7.2-.7.1-.7-.1-.7.1-.7-.2-.7.2-.7-.1-.8-.2-.7.4-.7-.3h-.7l-.7.3h-.7l-.7-.2-.7.2-.7-.4-.8.2h-2.1l-.7-.2h-.7l-.7.1-.7.1-.7.2-.8-.2-.7.3-.6.2-.4.6-.3.7.1.8.2.7-.6.6.2.8-.2.7.1.7v.7l-.3.7v.7l-.3.7-.1.7v.7l-.4.7-.2.7.2.8-.6.6v.7l-.4.6.2.8-.5.6.1.8-.2.7-.4.6-.1.7-.3.7-.4.6-.4.6-.2.7-.1.7-.4.6-.6.5-.3.7-.3.6-.5.6-.2.7-.4.6-.4.6-.4.6-.3.6-.6.5-.4.6-.2.7-.8.3-.4.6-.5.4-.2.9-.7.3-.6.3-.4.7-.4.7-.6.3-.5.5-.8.2-.6.4-.5.4-.4.8-.7.2-.5.5-.6.4-.8.1-.6.4-.7.3-.6.2-.7.3-.6.4-.5.5-.7.4-.8-.1-.6.4h-.7l-.7.3-.6.4-.7.3-.7.2-.7.1h-.7l-.6.5h-.7l-.7.3-.3.3.4.4.3.1.4.2h.7l.7.2h1.4l.7.1.7-.2.7.2h1.5l.7.2h.7l.7-.3.7.3.7-.4.7.1h.7l.7.4h1.4l.7-.2.8.3.7-.3h.7l.7.3.7-.3h.7l.7.3h.7l.7-.4h.7l.7.4.8.1.7-.4.7.2h.7l.7.1.7-.2.7.3.7-.5.7.2.7.3h.8l.7-.1.7-.2.6.2.8-.2.7-.1.7.1.7-.1.7.3h.8l.7-.3.7.5.7-.4.7.4h1.4l.7-.5.7.4.7-.1h2.2l.7-.3.7.1.7.3h1.4l.7.1.7-.2.7-.2.7.4h2.9l.7-.3.7.1h.7l.7.1h1.4l.7-.2h1.5l.7.1.7-.1h.7l.7.2h.7l.7-.3.7.1h2.1l.8-.2h.7l.7.2.7.2.7-.1h1.4l.7-.2.7.4h.7l.7-.3.8.3.7-.4.7.3.7-.3h.7l.7.3h1.4l.7-.4.7.2h.8l.7.2h.7l.7-.3h.7l.7.2h2.8l.7.2.8-.2h1.4l.7.2.7-.2.7-.2.7-.1.7.4.7-.3h.7l.7.3.8-.4.7.4.7-.4.7.3.7-.3.7.2.7.2.7-.5h.7l.7.4h1.5l.7-.4.7.5.7-.2.7-.1.7.3h1.4l.7-.3h1.5l.7.2.7-.1h1.4l.7-.1.7-.2.7.4.8-.4h1.4l.7.3.7-.3h.7l.7.3h1.4l.8-.1h.7l.7-.2.7.2.7-.2.7.3.7-.3h.7l.7.2.8.2.7-.3.7.2.7-.3h.7l.7.3.7-.3.7.3.7-.2h.8l.7.1h.7l.7-.2h.7l.7.3h.7l.7-.5h1.5l.7.2h.7l.7.3.7-.4h.7l.7.2h.7l.7-.1.8.1.7-.2.7.2h1.4l.7-.2.7.3.7-.4.7.3.8-.2h1.4l.7.2.7-.2.7.3.7-.1h1.4l.8-.3h2.8l.7.3.7-.4.7.2h.7l.8-.1.7.3.7-.3h1.4l.7.1.7.2.7-.2h.7l.8-.1h2.1l.7-.2.7.4h.7l.7-.2h.7l.8.1h.7l.7-.2.7.1h.7l.7.1h.7l.7-.4.7.1h2.2l.7.3h.7l.7-.4h.7l.7.5.7-.5.7.2h.8l.7-.2.7.1h2.1l.7.3.7-.2.7-.3h.7l.8.1.7.3.7-.2h.7l.7-.1.7-.1.7.2h.7l.7-.2.7.4.7-.3.8-.1h.7l.7.3.7-.3.7.1h.7l.7.3.7-.4.7.2.7-.3h.7l.8.2h.7l.7-.2h.7l.7.1h1.4l.7.2h.7l.7-.2h.8l.7-.2h.7l.7.4.7-.2.7.3h.7l.7-.3.7.1.7-.2.8.2.6-.3h1.5l.7-.2h.7l.6-.7.7-.1h.7l.7-.3.5-.5h.8l.7-.4.5-.5.4-.6.8-.2.4-.6.6-.4.7-.2.3-.8.7-.3.4-.6.5-.5.7-.3.3-.7.4-.6.5-.5.3-.6.6-.5.5-.6.2-.6.4-.6.4-.6.6-.5.4-.6.2-.7.3-.6.2-.7.3-.7.4-.6.5-.5.4-.6v-1.5l.3-.7.8-.5-.1-.8.3-.6.2-.7.3-.7.4-.6v-.7l.2-.7.2-.7.4-.6.2-.7v-.7l.2-.7v-.7l.3-.7.5-.6v-2.2l.2-.7.2-.7.5-.6-.4-.8.6-.6v-1.5l.3-.7v-2.1l.2-.7.1-.7-.1-.7v-.7l.2-.7.2-.6.3-.7-.2-.7v-.7l.1-.7.4-.7v-.7l-.4-.7v-.5z" fill="#58b5f7"/><path d="m153.7 106 .8.1 1.4-.1h10l.6-.1h6.5l.6-.1h8.6l.6-.1h5.8l.7-.1h8.5l.8-.1h5.7l.5-.1h.6l.9.1.7-.1h2.8l.8-.1h8.5l.7-.1h2.8l.7.1.8-.1h3.6l.6-.1h11.3l1.5-.2h.6l.8.2.8-.2h.6a1.3 1.3 0 0 0 0-2.6h-.9l-.6.1h-1.4l-1.4.1h-12.1l-.7.2h-2l-.9-.1h-4.2l-.8.1h-8.5l-.6.1h-2.9l-.7.1h-7.8l-.7.1h-3.4l-.8-.1-.8.2-.6-.1h-3.1l-.7.1h-7l-.7.1h-7l-.8.1h-3.5l-.7.1h-1.3l-.8-.1-.8.1h-6.4l-.6.1h-1.4l-.7-.1h-.8l-1.4.1h-.6c-.7 0-1.3.6-1.3 1.3s.5 1.3 1.2 1.3zm103.3-1h.2l.6-.2h12.8l2.2-.1h2.9l.7-.1h7.1l.7-.1h7.1a1.3 1.3 0 0 0 0-2.6h-8.5l-2.2.1h-5.6l-.8.1h-7.7l-.8.1h-7.9l-.8.1a1.3 1.3 0 0 0 .1 2.6zm-12.6 33.7h-7.8l-.7.1h-5.9l-.5.1-.6-.1h-3l-.8.2h-2.6l-.9-.1h-2l-2.2.2h-.6l-.7-.1h-3l-.7.1h-5.6l-1.4.1h-4.4l-2 .1h-9.9l-.7.1-.8-.1-.8.2h-12l-.6.1h-1.4l-.6-.1h-.9l-.8.1h-1.3l-1.4.1h-7.2l-.6.1h-2l-.9-.1h-.7l-.8.2a1.3 1.3 0 0 0 .3 2.5h.7l.6-.1h2l.8.1h.8l1.4-.2h2l.8.1.8-.1h1.2l.8.1h.9l.5-.2.7.2.8-.1.8-.1h.5l.7.1h3l.7-.1h5.6l.8-.1h5.6l.8-.1h7.1l.6-.1h8.5l1.5-.1h5.7l.7-.1h4.3l2-.1h8l.7-.1h.5l.9.2.8-.2h7.7l.7-.2.7.1h5.1l.7-.1h.6a1.3 1.3 0 1 0 0-2.6h-.9l-.6.1zm46.8-.5h-7.1l-1.5.1h-7.1l-.7.1h-6.5l-.7.1h-7.1l-1.5.1a1.3 1.3 0 0 0 0 2.6h3.7l.7-.1h7.1l.7-.1h6.4l.7-.1h7.2l1.4-.1h6.5a1.3 1.3 0 1 0 0-2.6zm-45.6 36.7-.5.1h-7.1l-.7.1h-9.9l-.8.1h-7.8l-.7.1h-7.8l-.7.1h-3.6l-.5.1-.6-.1-2.3.2h-.6l-.6-.1h-1l-.7.1h-.5l-.7-.1h-5.9l-.7.2h-1.4l-1.5-.1-.7.1h-9.2l-.7.1h-2.2l-.7.1h-1.1l-1-.1-.8.1h-4.2l-.7.1h-9.9l-.6.1h-.8l-1 .1a1.3 1.3 0 1 0 .6 2.5h2.6l1.4-.2h2.7l.9.1h4.3l.8-.1h4.2l.7-.1h.5l.7.1h.8l.8-.1h2.1l.7-.1h5.8l.4-.1.7.2h1l.6-.2.7.1.8-.1h5.6l.6-.1h7.3l2-.1.7.1.8-.1h4.9l.8-.1h8.5l.6-.1h5.8l.7-.1h9.9l.8-.1h4.2l.7-.1h1.4l.8.1.9-.2a1.3 1.3 0 0 0 -.6-2.5zm13.4 2.6h3.6l.8-.1h4.3l.6-.1h8.6l2.2-.1h7.9l.7-.1h5.8a1.3 1.3 0 1 0 -.2-2.7h-1.4l-.7.1h-8.6l-.7.1h-6.5l-.6.1h-7.3l-.6.1h-7.2l-.8.1a1.3 1.3 0 0 0 .1 2.6zm-103 37.4h5.8l.6-.1h11.4l.6-.1h7.3l.7-.1h5l.5-.1.8.1.8-.1h8.5l.7-.2h2l.8.1.8-.1h1.2l.6.1h.9l.8-.1h.5l.8.1.9-.1h.6l1.3-.1.8.2.8-.2h7l.7-.1h8l.7-.1h7l.6-.1h7.3l.6-.1h2.7a1.3 1.3 0 1 0 .2-2.5h-2.2l-.8-.1-.8.1h-4.9l-.8.1h-.5l-.8-.1h-.8l-.6.1h-6.5l-.7.1h-.5l-.8-.1-.9.2h-.5l-.8-.1-.7.1h-2.7l-.8-.1-.8.1h-7.1l-.6.1h-5.2l-.6.1h-1.2l-1.7-.1-.6.1h-5l-.7.1h-6.4l-.6.1-.7-.1h-.8l-.8.1h-.6l-1.4.1h-1.4l-.9-.2-.7.2h-9.8l-.7.1h-6.4l-.7.1h-.6l-.8-.1-.8.1h-5.6a1.3 1.3 0 0 0 -.1 2.6zm137.7-4.2h-5.1l-.7.1h-5l-.7.1h-7.9l-.7.1h-7.8l-.7.1h-5.8a1.3 1.3 0 1 0 0 2.6h8.6l1.5-.1h5.7l.7-.1h7.2l1.3-.1h7.2l1.4-.1h.7a1.3 1.3 0 1 0 .1-2.6z" fill="#153159"/><path d="m304.2 99 .1.3.4.6h.2v.2l.1.3.6.5.3.5.2.2.3.5.2.2v.2l.6.5v.2l.4.3.1.5.3.2.3.3.3.3v.1l.4.5v.1l.2.4h.2v.1l.4.4.1.1.1.3.3.3.4.6.2.1v.1l.1.5.7.3.3.5h1.7l1.1-.4.3-.4.8-.7.7-.9v-.1h.1l.6-.4.2-.6.8-.5v-.3l.3-.1.2-.6.1-.1v-.2l.4-.2.3-.4.4-.6.4-.2.2-.4.3-.3.2-.4h.1l.2-.5.2-.2.3-.1.3-.6.3-.3.1-.3.4-.3.1-.3.1-.1.3-.3h.1l.3-.4.3-.4.3-.4.2-.1v-.2l.2-.1.2-.5.2-.3.7-.3v-.5l.1-.1.2-.3.3-.3.3-.4.4-.3.1-.4.3-.4h.1l.6-.8v-.1l.4-.5v-.1l.2-.2h.2l.6-.7v-.2l.3-.2.4-.6.4-.4v-.2h.1l.5-.6.2-.2.3-.5.1-.3.4-.2.4-.7.6-.5.2-.4.2-.2.5-.3.2-.6h.1l.1-.3.2-.1.3-.5h.1l.2-.3.8-.9.3-.2.2-.4.4-.4.2-.2.3-.4.3-.3.1-.2.4-.1.2-.5.5-.5v-.1a2 2 0 0 0 -2-3.6l-.6.3-.2.3-.3.3-.3.2-.1.2-.2.1-.3.4-.2.2-.3.4-.2.3-.2.2-.2.2-.6.7h-.2l-.3.5-.3.3v.1l-.4.4-.1.2-.3.2-.1.3-.1.1-.1.2h-.1l-1 1.1v.2l-.2.1-.4.5-.6.7v.2h-.2l-.4.6-.1.1-.4.2-.2.8-.9.8v.2h-.2l-.4.7-.3.3v.1l-.5.5-.1.2-.3.3-.1.2-.5.6-.4.5-.2.2-.4.6-.4.4v.2l-.4.2-.1.4-.5.3-.1.4-.4.4-.3.4-.3.2v.2l-.3.2-.1.5h-.1l-.4.3-.2.4-.1.2-.2.2-1 1.2-.2.1-.2.5-.3.2-.2.4-.3.3v.1l-.3.4-.3.3-.3.3-.4.6-.3.3-.3.3-.3.5-.3.3-.7.7-.1.3-.2.2-.2.1-.3.5-.3.4-.3-.5-.2-.1v-.3l-.3-.1-.4-.5-.3-.6-.4-.3-.4-.7h-.2l-.1-.2-.4-.6-.1-.4-.4-.2v-.3l-.5-.3-.2-.2-.3-.6-.7-.8-.3-.6-.3-.1-.1-.2a2 2 0 0 0 -3.5 2.2l.2.3zm.2 38.7.2.4h.2l.3.7.5.6.2.2.3.3v.1l.1.1.5.8h.1v.2l.4.3.2.3.3.4.3.5.2.6.5.2.3.3v.1l.2.3.3.4.2.2.2.4h.1l.1.4.2.1.4.3.1.3h.1l.2.4.3.2.2.2.8.5 1.5.4 1-1 .4-.2.1-.1.3-.3.4-.4.1-.2.1-.1.6-.5v-.1l.5-.4v-.2l.2-.3.4-.3.1-.3.6-.6.1-.3.4-.3.1-.3.3-.2.2-.3.4-.4v-.2h.2l.2-.5.2-.1.5-.7v-.1l.1-.1.2-.2.1-.2.5-.5.2-.2.5-.3.1-.5.3-.4v-.2l.3-.3.3-.3.7-.7v-.2l.2-.1.3-.4.3-.1.2-.6.5-.5v-.2h.2l.1-.3h.2l.2-.5.5-.5.3-.5.4-.4v-.1l.2-.3.5-.3.2-.1.1-.6.3-.1v-.2l.3-.2.2-.4.2-.3.5-.7.3-.3.3-.2.3-.6.4-.5.3-.3v-.1l.4-.3.1-.3h.1l.3-.3.2-.1.2-.5.2-.2.1-.2.1-.1.3-.2.3-.6.7-.4.1-.5v-.1l.7-.5v-.3h.3l.3-.6.3-.3v-.1l.6-.2.2-.7v-.1h.1v-.1l.5-.3.2-.4.5-.5.1-.2.6-.5v-.2a2 2 0 0 0 -2.5-3.2l-.2.1-.7.6-.1.1-.4.7-.2.2-.5.3v.3h-.1l-.3.2-.2.3-.1.1-.3.1-.3.6-.2.2v.1h-.1l-.1.2-.4.2-.1.3-.5.2-.1.6-.8.9-.2.2v.2l-.4.2-.2.5-.2.2-.1.2-.5.2-.2.5-.3.5-.3.3-.1.1-.4.4v.2l-.4.3v.2l-.4.4-1 1.2v.1l-.4.5h-.2l-.1.3-.3.4-.1.1-.5.2-.1.6-.4.3-.2.5-.2.3-.1.2-.4.3-.2.3h-.1l-.4.6-.5.5v.2l-.2.2-.3.2-.3.6-.3.3-.4.6-.2.2-.3.3-.3.5-.4.4-.5.2-.1.6-.3.4-.4.4-.2.3-.2.3-.2.2-1.4 1.6v.3l-.4.3v.1h-.1l-.2.3-.3.3-.2.3-.5.3-.2.6-.2.1-.2.3-.4.3-.1.3h-.1l-.2.3-.2-.2-.2-.2-.2-.4-.2-.1v-.1l-.6-.7-.3-.7h-.1l-.3-.2v-.3l-.6-.4-.2-.3-.1-.5-.6-.4-.1-.2-.1-.2-.2-.3-.2-.4-.3-.2-.1-.2-.2-.3-.3-.3-.2-.4-.3-.2-.4-.6-.5-.4a2 2 0 0 0 -2.5 3.3z" fill="#0077c8"/></svg>